<?xml version="1.0" encoding="UTF-8" standalone="no"?>
<!-- Generator: Adobe Illustrator 19.0.0, SVG Export Plug-In . SVG Version: 6.00 Build 0)  -->

<svg
   xmlns:dc="http://purl.org/dc/elements/1.1/"
   xmlns:cc="http://creativecommons.org/ns#"
   xmlns:rdf="http://www.w3.org/1999/02/22-rdf-syntax-ns#"
   xmlns:svg="http://www.w3.org/2000/svg"
   xmlns="http://www.w3.org/2000/svg"
   xmlns:sodipodi="http://sodipodi.sourceforge.net/DTD/sodipodi-0.dtd"
   xmlns:inkscape="http://www.inkscape.org/namespaces/inkscape"
   version="1.1"
   id="Capa_1"
   x="0px"
   y="0px"
   viewBox="0 0 502.688 502.688"
   style="enable-background:new 0 0 502.688 502.688;"
   xml:space="preserve"
   inkscape:version="0.91 r13725"
   sodipodi:docname="edit-page.svg"><metadata
     id="metadata79"><rdf:RDF><cc:Work
         rdf:about=""><dc:format>image/svg+xml</dc:format><dc:type
           rdf:resource="http://purl.org/dc/dcmitype/StillImage" /></cc:Work></rdf:RDF></metadata><defs
     id="defs77" /><sodipodi:namedview
     pagecolor="#ffffff"
     bordercolor="#666666"
     borderopacity="1"
     objecttolerance="10"
     gridtolerance="10"
     guidetolerance="10"
     inkscape:pageopacity="0"
     inkscape:pageshadow="2"
     inkscape:window-width="1366"
     inkscape:window-height="705"
     id="namedview75"
     showgrid="false"
     showguides="false"
     inkscape:zoom="0.46947611"
     inkscape:cx="224.71857"
     inkscape:cy="143.17435"
     inkscape:window-x="-8"
     inkscape:window-y="-8"
     inkscape:window-maximized="1"
     inkscape:current-layer="g3" /><g
     id="g3"><g
       id="g5"
       transform="translate(2.1300357,-2.1300338)"
       style="fill:#000000;fill-opacity:1"
       inkscape:export-filename="D:\OpenServer\domains\pronwe\assets\img\icons\PNG\edit-page.png"
       inkscape:export-xdpi="235"
       inkscape:export-ydpi="235"><g
         id="g7"
         style="fill:#000000;fill-opacity:1"><path
           d="m 395.004,117.087 -3.063,3.538 0,-22.757 c 0,-23.361 -19.133,-42.473 -42.516,-42.473 l -306.931,0 C 19.133,55.395 0,74.507 0,97.868 l 0,306.931 c 0,23.361 19.155,42.494 42.516,42.494 l 306.931,0 c 23.383,0 42.516,-19.133 42.516,-42.494 l 0,-145.344 71.744,-82.789 -68.703,-59.579 z m -81.365,232.706 46.161,-53.258 0,114.304 -327.66,0 0,-267.37 327.617,0 0,14.301 -114.756,132.444 68.638,59.579 z"
           id="path9"
           inkscape:connector-curvature="0"
           style="fill:#000000;fill-opacity:1" /><path
           d="M 496.797,115.275 451.002,75.628 c -6.256,-5.479 -15.229,-5.608 -19.759,-0.345 l -28.689,33.111 68.768,59.557 28.646,-33.111 c 4.637,-5.242 3.192,-14.15 -3.171,-19.565 z"
           id="path11"
           inkscape:connector-curvature="0"
           style="fill:#000000;fill-opacity:1" /><polygon
           points="305.96,358.81 237.235,299.188 215.924,387.305 219.418,390.324 "
           id="polygon13"
           style="fill:#000000;fill-opacity:1" /></g></g><g
       id="g15" /><g
       id="g17" /><g
       id="g19" /><g
       id="g21" /><g
       id="g23" /><g
       id="g25" /><g
       id="g27" /><g
       id="g29" /><g
       id="g31" /><g
       id="g33" /><g
       id="g35" /><g
       id="g37" /><g
       id="g39" /><g
       id="g41" /><g
       id="g43" /><path
       style="opacity:0;fill:#b3b3b3;fill-opacity:1;stroke:#f9fafb;stroke-width:2.13003373;stroke-linejoin:miter;stroke-miterlimit:4;stroke-dasharray:none;stroke-opacity:1"
       d="m 414.80618,445.01745 c -4.63735,-2.62656 -11.34695,-8.92316 -14.91024,-13.99238 l -6.47869,-9.21679 -0.58467,-160.74653 c -0.41514,-114.1386 0.11058,-163.328459 1.81316,-169.651375 3.17293,-11.783373 17.26654,-25.876982 29.04992,-29.049915 6.32291,-1.702584 55.51277,-2.228303 169.65137,-1.813157 l 160.74653,0.584669 9.21679,6.478693 c 14.23312,10.004798 18.761,19.841136 18.80304,40.847715 0.0281,14.023 0.6215,17.28088 2.98271,16.3748 2.87503,-1.10325 67.34345,52.94252 67.34345,56.456 0,0.92679 -15.57587,19.68337 -34.61305,41.68129 l -34.61305,39.99621 -1.06502,80.29539 -1.06502,80.29538 -5.71705,8.63473 c -3.44147,5.19783 -9.43194,10.43309 -15.05022,13.15285 -9.26497,4.48508 -10.53108,4.51787 -173.2058,4.48308 l -163.87261,-0.035 -8.43155,-4.77562 z M 752.32796,358.2717 c 0,-31.63101 -0.4127,-57.51092 -0.91709,-57.51092 -0.50439,0 -10.72174,11.26256 -22.7052,25.0279 -11.98349,13.76534 -22.52317,25.0279 -23.42156,25.0279 -1.86211,0 -65.78083,-54.81536 -65.82004,-56.4459 -0.0149,-0.58576 25.35119,-30.29973 56.36727,-66.03105 52.01302,-59.9203 56.39693,-65.58641 56.44475,-72.95366 l 0.0519,-7.98763 -165.07763,0 -165.07762,0 0,134.19214 0,134.19213 165.07762,0 165.07763,0 0,-57.51091 z"
       id="path3411"
       inkscape:connector-curvature="0" /><path
       style="opacity:0;fill:#b3b3b3;fill-opacity:1;stroke:#f9fafb;stroke-width:2.13003373;stroke-linejoin:miter;stroke-miterlimit:4;stroke-dasharray:none;stroke-opacity:1"
       d="m 414.80618,445.01745 c -4.63735,-2.62656 -11.34695,-8.92316 -14.91024,-13.99238 l -6.47869,-9.21679 -0.58467,-160.74653 c -0.41514,-114.1386 0.11058,-163.328459 1.81316,-169.651375 3.17293,-11.783373 17.26654,-25.876982 29.04992,-29.049915 6.32291,-1.702584 55.51277,-2.228303 169.65137,-1.813157 l 160.74653,0.584669 9.21679,6.478693 c 14.23312,10.004798 18.761,19.841136 18.80304,40.847715 0.0281,14.023 0.6215,17.28088 2.98271,16.3748 2.87503,-1.10325 67.34345,52.94252 67.34345,56.456 0,0.92679 -15.57587,19.68337 -34.61305,41.68129 l -34.61305,39.99621 -1.06502,80.29539 -1.06502,80.29538 -5.71705,8.63473 c -3.44147,5.19783 -9.43194,10.43309 -15.05022,13.15285 -9.26497,4.48508 -10.53108,4.51787 -173.2058,4.48308 l -163.87261,-0.035 -8.43155,-4.77562 z M 752.32796,358.2717 c 0,-31.63101 -0.4127,-57.51092 -0.91709,-57.51092 -0.50439,0 -10.72174,11.26256 -22.7052,25.0279 -11.98349,13.76534 -22.52317,25.0279 -23.42156,25.0279 -1.86211,0 -65.78083,-54.81536 -65.82004,-56.4459 -0.0149,-0.58576 25.35119,-30.29973 56.36727,-66.03105 52.01302,-59.9203 56.39693,-65.58641 56.44475,-72.95366 l 0.0519,-7.98763 -165.07763,0 -165.07762,0 0,134.19214 0,134.19213 165.07762,0 165.07763,0 0,-57.51091 z"
       id="path3413"
       inkscape:connector-curvature="0" /><path
       style="opacity:0;fill:#b3b3b3;fill-opacity:1;stroke:#f9fafb;stroke-width:2.13003373;stroke-linejoin:miter;stroke-miterlimit:4;stroke-dasharray:none;stroke-opacity:1"
       d="m 414.80618,445.01745 c -4.63735,-2.62656 -11.34695,-8.92316 -14.91024,-13.99238 l -6.47869,-9.21679 -0.58467,-160.74653 c -0.41514,-114.1386 0.11058,-163.328459 1.81316,-169.651375 3.17293,-11.783373 17.26654,-25.876982 29.04992,-29.049915 6.32291,-1.702584 55.51277,-2.228303 169.65137,-1.813157 l 160.74653,0.584669 9.21679,6.478693 c 14.23312,10.004798 18.761,19.841136 18.80304,40.847715 0.0281,14.023 0.6215,17.28088 2.98271,16.3748 2.87503,-1.10325 67.34345,52.94252 67.34345,56.456 0,0.92679 -15.57587,19.68337 -34.61305,41.68129 l -34.61305,39.99621 -1.06502,80.29539 -1.06502,80.29538 -5.71705,8.63473 c -3.44147,5.19783 -9.43194,10.43309 -15.05022,13.15285 -9.26497,4.48508 -10.53108,4.51787 -173.2058,4.48308 l -163.87261,-0.035 -8.43155,-4.77562 z M 752.32796,358.2717 c 0,-31.63101 -0.4127,-57.51092 -0.91709,-57.51092 -0.50439,0 -10.72174,11.26256 -22.7052,25.0279 -11.98349,13.76534 -22.52317,25.0279 -23.42156,25.0279 -1.86211,0 -65.78083,-54.81536 -65.82004,-56.4459 -0.0149,-0.58576 25.35119,-30.29973 56.36727,-66.03105 52.01302,-59.9203 56.39693,-65.58641 56.44475,-72.95366 l 0.0519,-7.98763 -165.07763,0 -165.07762,0 0,134.19214 0,134.19213 165.07762,0 165.07763,0 0,-57.51091 z"
       id="path3415"
       inkscape:connector-curvature="0" /><path
       style="opacity:0;fill:#b3b3b3;fill-opacity:1;stroke:#f9fafb;stroke-width:2.13003373;stroke-linejoin:miter;stroke-miterlimit:4;stroke-dasharray:none;stroke-opacity:1"
       d="m 414.80618,445.01745 c -4.63735,-2.62656 -11.34695,-8.92316 -14.91024,-13.99238 l -6.47869,-9.21679 -0.58467,-160.74653 c -0.41514,-114.1386 0.11058,-163.328459 1.81316,-169.651375 3.17293,-11.783373 17.26654,-25.876982 29.04992,-29.049915 6.32291,-1.702584 55.51277,-2.228303 169.65137,-1.813157 l 160.74653,0.584669 9.21679,6.478693 c 14.23312,10.004798 18.761,19.841136 18.80304,40.847715 0.0281,14.023 0.6215,17.28088 2.98271,16.3748 2.87503,-1.10325 67.34345,52.94252 67.34345,56.456 0,0.92679 -15.57587,19.68337 -34.61305,41.68129 l -34.61305,39.99621 -1.06502,80.29539 -1.06502,80.29538 -5.71705,8.63473 c -3.44147,5.19783 -9.43194,10.43309 -15.05022,13.15285 -9.26497,4.48508 -10.53108,4.51787 -173.2058,4.48308 l -163.87261,-0.035 -8.43155,-4.77562 z M 752.32796,358.2717 c 0,-31.63101 -0.4127,-57.51092 -0.91709,-57.51092 -0.50439,0 -10.72174,11.26256 -22.7052,25.0279 -11.98349,13.76534 -22.52317,25.0279 -23.42156,25.0279 -1.86211,0 -65.78083,-54.81536 -65.82004,-56.4459 -0.0149,-0.58576 25.35119,-30.29973 56.36727,-66.03105 52.01302,-59.9203 56.39693,-65.58641 56.44475,-72.95366 l 0.0519,-7.98763 -165.07763,0 -165.07762,0 0,134.19214 0,134.19213 165.07762,0 165.07763,0 0,-57.51091 z"
       id="path3417"
       inkscape:connector-curvature="0" /><path
       style="opacity:0;fill:#b3b3b3;fill-opacity:1;stroke:#f9fafb;stroke-width:2.13003373;stroke-linejoin:miter;stroke-miterlimit:4;stroke-dasharray:none;stroke-opacity:1"
       d="m 414.80618,445.01745 c -4.63735,-2.62656 -11.34695,-8.92316 -14.91024,-13.99238 l -6.47869,-9.21679 -0.58467,-160.74653 c -0.41514,-114.1386 0.11058,-163.328459 1.81316,-169.651375 3.17293,-11.783373 17.26654,-25.876982 29.04992,-29.049915 6.32291,-1.702584 55.51277,-2.228303 169.65137,-1.813157 l 160.74653,0.584669 9.21679,6.478693 c 14.23312,10.004798 18.761,19.841136 18.80304,40.847715 0.0281,14.023 0.6215,17.28088 2.98271,16.3748 2.87503,-1.10325 67.34345,52.94252 67.34345,56.456 0,0.92679 -15.57587,19.68337 -34.61305,41.68129 l -34.61305,39.99621 -1.06502,80.29539 -1.06502,80.29538 -5.71705,8.63473 c -3.44147,5.19783 -9.43194,10.43309 -15.05022,13.15285 -9.26497,4.48508 -10.53108,4.51787 -173.2058,4.48308 l -163.87261,-0.035 -8.43155,-4.77562 z M 752.32796,358.2717 c 0,-31.63101 -0.4127,-57.51092 -0.91709,-57.51092 -0.50439,0 -10.72174,11.26256 -22.7052,25.0279 -11.98349,13.76534 -22.52317,25.0279 -23.42156,25.0279 -1.86211,0 -65.78083,-54.81536 -65.82004,-56.4459 -0.0149,-0.58576 25.35119,-30.29973 56.36727,-66.03105 52.01302,-59.9203 56.39693,-65.58641 56.44475,-72.95366 l 0.0519,-7.98763 -165.07763,0 -165.07762,0 0,134.19214 0,134.19213 165.07762,0 165.07763,0 0,-57.51091 z"
       id="path3419"
       inkscape:connector-curvature="0" /><path
       style="opacity:0;fill:#b3b3b3;fill-opacity:1;stroke:#f9fafb;stroke-width:2.13003373;stroke-linejoin:miter;stroke-miterlimit:4;stroke-dasharray:none;stroke-opacity:1"
       d="m 414.80618,445.01745 c -4.63735,-2.62656 -11.34695,-8.92316 -14.91024,-13.99238 l -6.47869,-9.21679 -0.58467,-160.74653 c -0.41514,-114.1386 0.11058,-163.328459 1.81316,-169.651375 3.17293,-11.783373 17.26654,-25.876982 29.04992,-29.049915 6.32291,-1.702584 55.51277,-2.228303 169.65137,-1.813157 l 160.74653,0.584669 9.21679,6.478693 c 14.23312,10.004798 18.761,19.841136 18.80304,40.847715 0.0281,14.023 0.6215,17.28088 2.98271,16.3748 2.87503,-1.10325 67.34345,52.94252 67.34345,56.456 0,0.92679 -15.57587,19.68337 -34.61305,41.68129 l -34.61305,39.99621 -1.06502,80.29539 -1.06502,80.29538 -5.71705,8.63473 c -3.44147,5.19783 -9.43194,10.43309 -15.05022,13.15285 -9.26497,4.48508 -10.53108,4.51787 -173.2058,4.48308 l -163.87261,-0.035 -8.43155,-4.77562 z M 752.32796,358.2717 c 0,-31.63101 -0.4127,-57.51092 -0.91709,-57.51092 -0.50439,0 -10.72174,11.26256 -22.7052,25.0279 -11.98349,13.76534 -22.52317,25.0279 -23.42156,25.0279 -1.86211,0 -65.78083,-54.81536 -65.82004,-56.4459 -0.0149,-0.58576 25.35119,-30.29973 56.36727,-66.03105 52.01302,-59.9203 56.39693,-65.58641 56.44475,-72.95366 l 0.0519,-7.98763 -165.07763,0 -165.07762,0 0,134.19214 0,134.19213 165.07762,0 165.07763,0 0,-57.51091 z"
       id="path3421"
       inkscape:connector-curvature="0" /><path
       style="opacity:0;fill:#b3b3b3;fill-opacity:1;stroke:#f9fafb;stroke-width:2.13003373;stroke-linejoin:miter;stroke-miterlimit:4;stroke-dasharray:none;stroke-opacity:1"
       d="m 414.80618,445.01745 c -4.63735,-2.62656 -11.34695,-8.92316 -14.91024,-13.99238 l -6.47869,-9.21679 -0.58467,-160.74653 c -0.41514,-114.1386 0.11058,-163.328459 1.81316,-169.651375 3.17293,-11.783373 17.26654,-25.876982 29.04992,-29.049915 6.32291,-1.702584 55.51277,-2.228303 169.65137,-1.813157 l 160.74653,0.584669 9.21679,6.478693 c 14.23312,10.004798 18.761,19.841136 18.80304,40.847715 0.0281,14.023 0.6215,17.28088 2.98271,16.3748 2.87503,-1.10325 67.34345,52.94252 67.34345,56.456 0,0.92679 -15.57587,19.68337 -34.61305,41.68129 l -34.61305,39.99621 -1.06502,80.29539 -1.06502,80.29538 -5.71705,8.63473 c -3.44147,5.19783 -9.43194,10.43309 -15.05022,13.15285 -9.26497,4.48508 -10.53108,4.51787 -173.2058,4.48308 l -163.87261,-0.035 -8.43155,-4.77562 z M 752.32796,358.2717 c 0,-31.63101 -0.4127,-57.51092 -0.91709,-57.51092 -0.50439,0 -10.72174,11.26256 -22.7052,25.0279 -11.98349,13.76534 -22.52317,25.0279 -23.42156,25.0279 -1.86795,0 -65.78038,-54.8176 -65.82119,-56.45472 -0.0149,-0.59061 11.58084,-14.48908 25.76789,-30.8855 14.18705,-16.3964 27.36663,-31.65381 29.28796,-33.90534 1.92134,-2.25154 2.31314,-3.40421 0.8707,-2.5615 -3.89873,2.27771 -58.08334,65.10377 -58.08334,67.34655 0,2.1763 65.75184,59.65556 68.24136,59.65556 1.32782,0 32.90517,-35.20556 41.92016,-46.73676 2.05891,-2.63359 2.60878,8.00827 2.66254,51.52933 l 0.0677,54.84838 -162.94759,0 -162.94759,0 0,-132.0621 0,-132.0621 162.94759,0 162.94759,0 0,6.27747 c 0,4.97526 -5.48115,12.59733 -26.42251,36.74308 -14.53237,16.75609 -26.10906,30.79048 -25.72598,31.18754 0.77333,0.80155 6.26733,-5.20529 34.75347,-37.99752 16.98393,-19.55127 19.43455,-23.37038 19.47677,-30.35298 l 0.0483,-7.98763 -165.07763,0 -165.07762,0 0,134.19214 0,134.19213 165.07762,0 165.07763,0 0,-57.51091 z m -96.13567,21.17988 c 22.93814,-8.26687 42.03085,-15.35584 42.42829,-15.75328 0.39742,-0.39742 -14.84474,-14.26216 -33.8715,-30.81052 -19.02674,-16.54838 -35.25417,-29.34858 -36.06094,-28.44494 -1.55531,1.74212 -21.25309,82.84639 -21.22123,87.37689 0.0322,4.56626 5.79938,3.10235 48.72538,-12.36815 z"
       id="path3423"
       inkscape:connector-curvature="0" /><path
       style="opacity:0;fill:#b3b3b3;fill-opacity:1;stroke:#f9fafb;stroke-width:2.13003373;stroke-linejoin:miter;stroke-miterlimit:4;stroke-dasharray:none;stroke-opacity:1"
       d="m 414.80618,445.01745 c -4.63735,-2.62656 -11.34695,-8.92316 -14.91024,-13.99238 l -6.47869,-9.21679 -0.58467,-160.74653 c -0.41514,-114.1386 0.11058,-163.328459 1.81316,-169.651375 3.17293,-11.783373 17.26654,-25.876982 29.04992,-29.049915 6.32291,-1.702584 55.51277,-2.228303 169.65137,-1.813157 l 160.74653,0.584669 9.21679,6.478693 c 14.23312,10.004798 18.761,19.841136 18.80304,40.847715 0.0281,14.023 0.6215,17.28088 2.98271,16.3748 2.87503,-1.10325 67.34345,52.94252 67.34345,56.456 0,0.92679 -15.57587,19.68337 -34.61305,41.68129 l -34.61305,39.99621 -1.06502,80.29539 -1.06502,80.29538 -5.71705,8.63473 c -3.44147,5.19783 -9.43194,10.43309 -15.05022,13.15285 -9.26497,4.48508 -10.53108,4.51787 -173.2058,4.48308 l -163.87261,-0.035 -8.43155,-4.77562 z M 752.32796,358.2717 c 0,-31.63101 -0.4127,-57.51092 -0.91709,-57.51092 -0.50439,0 -10.72174,11.26256 -22.7052,25.0279 -11.98349,13.76534 -22.52317,25.0279 -23.42156,25.0279 -1.86211,0 -65.78083,-54.81536 -65.82004,-56.4459 -0.0149,-0.58576 25.35119,-30.29973 56.36727,-66.03105 52.01302,-59.9203 56.39693,-65.58641 56.44475,-72.95366 l 0.0519,-7.98763 -165.07763,0 -165.07762,0 0,134.19214 0,134.19213 165.07762,0 165.07763,0 0,-57.51091 z"
       id="path3425"
       inkscape:connector-curvature="0" /><path
       style="opacity:0;fill:#b3b3b3;fill-opacity:1;stroke:#f9fafb;stroke-width:2.13003373;stroke-linejoin:miter;stroke-miterlimit:4;stroke-dasharray:none;stroke-opacity:1"
       d="m 414.80618,445.01745 c -4.63735,-2.62656 -11.34695,-8.92316 -14.91024,-13.99238 l -6.47869,-9.21679 -0.58467,-160.74653 c -0.41514,-114.1386 0.11058,-163.328459 1.81316,-169.651375 3.17293,-11.783373 17.26654,-25.876982 29.04992,-29.049915 6.32291,-1.702584 55.51277,-2.228303 169.65137,-1.813157 l 160.74653,0.584669 9.21679,6.478693 c 14.23312,10.004798 18.761,19.841136 18.80304,40.847715 0.0281,14.023 0.6215,17.28088 2.98271,16.3748 2.87503,-1.10325 67.34345,52.94252 67.34345,56.456 0,0.92679 -15.57587,19.68337 -34.61305,41.68129 l -34.61305,39.99621 -1.06502,80.29539 -1.06502,80.29538 -5.71705,8.63473 c -3.44147,5.19783 -9.43194,10.43309 -15.05022,13.15285 -9.26497,4.48508 -10.53108,4.51787 -173.2058,4.48308 l -163.87261,-0.035 -8.43155,-4.77562 z M 752.32796,358.2717 c 0,-31.63101 -0.4127,-57.51092 -0.91709,-57.51092 -0.50439,0 -10.72174,11.26256 -22.7052,25.0279 -11.98349,13.76534 -22.52317,25.0279 -23.42156,25.0279 -1.86211,0 -65.78083,-54.81536 -65.82004,-56.4459 -0.0149,-0.58576 25.35119,-30.29973 56.36727,-66.03105 52.01302,-59.9203 56.39693,-65.58641 56.44475,-72.95366 l 0.0519,-7.98763 -165.07763,0 -165.07762,0 0,134.19214 0,134.19213 165.07762,0 165.07763,0 0,-57.51091 z"
       id="path3427"
       inkscape:connector-curvature="0" /><path
       style="opacity:0;fill:#b3b3b3;fill-opacity:1;stroke:#f9fafb;stroke-width:2.13003373;stroke-linejoin:miter;stroke-miterlimit:4;stroke-dasharray:none;stroke-opacity:1"
       d="m 414.80618,445.01745 c -4.63735,-2.62656 -11.34695,-8.92316 -14.91024,-13.99238 l -6.47869,-9.21679 -0.58467,-160.74653 c -0.41514,-114.1386 0.11058,-163.328459 1.81316,-169.651375 3.17293,-11.783373 17.26654,-25.876982 29.04992,-29.049915 6.32291,-1.702584 55.51277,-2.228303 169.65137,-1.813157 l 160.74653,0.584669 9.21679,6.478693 c 14.23312,10.004798 18.761,19.841136 18.80304,40.847715 0.0281,14.023 0.6215,17.28088 2.98271,16.3748 2.87503,-1.10325 67.34345,52.94252 67.34345,56.456 0,0.92679 -15.57587,19.68337 -34.61305,41.68129 l -34.61305,39.99621 -1.06502,80.29539 -1.06502,80.29538 -5.71705,8.63473 c -3.44147,5.19783 -9.43194,10.43309 -15.05022,13.15285 -9.26497,4.48508 -10.53108,4.51787 -173.2058,4.48308 l -163.87261,-0.035 -8.43155,-4.77562 z M 752.32796,358.2717 c 0,-31.63101 -0.4127,-57.51092 -0.91709,-57.51092 -0.50439,0 -10.72174,11.26256 -22.7052,25.0279 -11.98349,13.76534 -22.52317,25.0279 -23.42156,25.0279 -1.86211,0 -65.78083,-54.81536 -65.82004,-56.4459 -0.0149,-0.58576 25.35119,-30.29973 56.36727,-66.03105 52.01302,-59.9203 56.39693,-65.58641 56.44475,-72.95366 l 0.0519,-7.98763 -165.07763,0 -165.07762,0 0,134.19214 0,134.19213 165.07762,0 165.07763,0 0,-57.51091 z"
       id="path3429"
       inkscape:connector-curvature="0" /><path
       style="opacity:0;fill:#b3b3b3;fill-opacity:1;stroke:#f9fafb;stroke-width:2.13003373;stroke-linejoin:miter;stroke-miterlimit:4;stroke-dasharray:none;stroke-opacity:1"
       d="m 414.80618,445.01745 c -4.63735,-2.62656 -11.34695,-8.92316 -14.91024,-13.99238 l -6.47869,-9.21679 -0.58467,-160.74653 c -0.41514,-114.1386 0.11058,-163.328459 1.81316,-169.651375 3.17293,-11.783373 17.26654,-25.876982 29.04992,-29.049915 6.32291,-1.702584 55.51277,-2.228303 169.65137,-1.813157 l 160.74653,0.584669 9.21679,6.478693 c 14.23312,10.004798 18.761,19.841136 18.80304,40.847715 0.0281,14.023 0.6215,17.28088 2.98271,16.3748 2.87503,-1.10325 67.34345,52.94252 67.34345,56.456 0,0.92679 -15.57587,19.68337 -34.61305,41.68129 l -34.61305,39.99621 -1.06502,80.29539 -1.06502,80.29538 -5.71705,8.63473 c -3.44147,5.19783 -9.43194,10.43309 -15.05022,13.15285 -9.26497,4.48508 -10.53108,4.51787 -173.2058,4.48308 l -163.87261,-0.035 -8.43155,-4.77562 z M 752.32796,358.2717 c 0,-31.63101 -0.4127,-57.51092 -0.91709,-57.51092 -0.50439,0 -10.72174,11.26256 -22.7052,25.0279 -11.98349,13.76534 -22.52317,25.0279 -23.42156,25.0279 -1.86211,0 -65.78083,-54.81536 -65.82004,-56.4459 -0.0149,-0.58576 25.35119,-30.29973 56.36727,-66.03105 52.01302,-59.9203 56.39693,-65.58641 56.44475,-72.95366 l 0.0519,-7.98763 -165.07763,0 -165.07762,0 0,134.19214 0,134.19213 165.07762,0 165.07763,0 0,-57.51091 z"
       id="path3431"
       inkscape:connector-curvature="0" /><path
       style="opacity:0;fill:#b3b3b3;fill-opacity:1;stroke:#f9fafb;stroke-width:2.13003373;stroke-linejoin:miter;stroke-miterlimit:4;stroke-dasharray:none;stroke-opacity:1"
       d="m 414.80618,445.01745 c -4.63735,-2.62656 -11.34695,-8.92316 -14.91024,-13.99238 l -6.47869,-9.21679 -0.58467,-160.74653 c -0.41514,-114.1386 0.11058,-163.328459 1.81316,-169.651375 3.17293,-11.783373 17.26654,-25.876982 29.04992,-29.049915 6.32291,-1.702584 55.51277,-2.228303 169.65137,-1.813157 l 160.74653,0.584669 9.21679,6.478693 c 14.23312,10.004798 18.761,19.841136 18.80304,40.847715 0.0281,14.023 0.6215,17.28088 2.98271,16.3748 2.87503,-1.10325 67.34345,52.94252 67.34345,56.456 0,0.92679 -15.57587,19.68337 -34.61305,41.68129 l -34.61305,39.99621 -1.06502,80.29539 -1.06502,80.29538 -5.71705,8.63473 c -3.44147,5.19783 -9.43194,10.43309 -15.05022,13.15285 -9.26497,4.48508 -10.53108,4.51787 -173.2058,4.48308 l -163.87261,-0.035 -8.43155,-4.77562 z M 752.32796,358.2717 c 0,-31.63101 -0.4127,-57.51092 -0.91709,-57.51092 -0.50439,0 -10.72174,11.26256 -22.7052,25.0279 -11.98349,13.76534 -22.52317,25.0279 -23.42156,25.0279 -1.86211,0 -65.78083,-54.81536 -65.82004,-56.4459 -0.0149,-0.58576 25.35119,-30.29973 56.36727,-66.03105 52.01302,-59.9203 56.39693,-65.58641 56.44475,-72.95366 l 0.0519,-7.98763 -165.07763,0 -165.07762,0 0,134.19214 0,134.19213 165.07762,0 165.07763,0 0,-57.51091 z"
       id="path3433"
       inkscape:connector-curvature="0" /><path
       style="opacity:0;fill:#b3b3b3;fill-opacity:1;stroke:#f9fafb;stroke-width:2.13003373;stroke-linejoin:miter;stroke-miterlimit:4;stroke-dasharray:none;stroke-opacity:1"
       d="m 414.80618,445.01745 c -4.63735,-2.62656 -11.34695,-8.92316 -14.91024,-13.99238 l -6.47869,-9.21679 -0.58467,-160.74653 c -0.41514,-114.1386 0.11058,-163.328459 1.81316,-169.651375 3.17293,-11.783373 17.26654,-25.876982 29.04992,-29.049915 6.32291,-1.702584 55.51277,-2.228303 169.65137,-1.813157 l 160.74653,0.584669 9.21679,6.478693 c 14.23312,10.004798 18.761,19.841136 18.80304,40.847715 0.0281,14.023 0.6215,17.28088 2.98271,16.3748 2.87503,-1.10325 67.34345,52.94252 67.34345,56.456 0,0.92679 -15.57587,19.68337 -34.61305,41.68129 l -34.61305,39.99621 -1.06502,80.29539 -1.06502,80.29538 -5.71705,8.63473 c -3.44147,5.19783 -9.43194,10.43309 -15.05022,13.15285 -9.26497,4.48508 -10.53108,4.51787 -173.2058,4.48308 l -163.87261,-0.035 -8.43155,-4.77562 z M 752.32796,358.2717 c 0,-31.63101 -0.4127,-57.51092 -0.91709,-57.51092 -0.50439,0 -10.72174,11.26256 -22.7052,25.0279 -11.98349,13.76534 -22.52317,25.0279 -23.42156,25.0279 -1.86211,0 -65.78083,-54.81536 -65.82004,-56.4459 -0.0149,-0.58576 25.35119,-30.29973 56.36727,-66.03105 52.01302,-59.9203 56.39693,-65.58641 56.44475,-72.95366 l 0.0519,-7.98763 -165.07763,0 -165.07762,0 0,134.19214 0,134.19213 165.07762,0 165.07763,0 0,-57.51091 z"
       id="path3435"
       inkscape:connector-curvature="0" /><path
       style="opacity:0;fill:#b3b3b3;fill-opacity:1;stroke:#f9fafb;stroke-width:2.13003373;stroke-linejoin:miter;stroke-miterlimit:4;stroke-dasharray:none;stroke-opacity:1"
       d="m 414.80618,445.01745 c -4.63735,-2.62656 -11.34695,-8.92316 -14.91024,-13.99238 l -6.47869,-9.21679 -0.58467,-160.74653 c -0.41514,-114.1386 0.11058,-163.328459 1.81316,-169.651375 3.17293,-11.783373 17.26654,-25.876982 29.04992,-29.049915 6.32291,-1.702584 55.51277,-2.228303 169.65137,-1.813157 l 160.74653,0.584669 9.21679,6.478693 c 14.23312,10.004798 18.761,19.841136 18.80304,40.847715 0.0281,14.023 0.6215,17.28088 2.98271,16.3748 2.87503,-1.10325 67.34345,52.94252 67.34345,56.456 0,0.92679 -15.57587,19.68337 -34.61305,41.68129 l -34.61305,39.99621 -1.06502,80.29539 -1.06502,80.29538 -5.71705,8.63473 c -3.44147,5.19783 -9.43194,10.43309 -15.05022,13.15285 -9.26497,4.48508 -10.53108,4.51787 -173.2058,4.48308 l -163.87261,-0.035 -8.43155,-4.77562 z M 752.32796,358.2717 c 0,-31.63101 -0.4127,-57.51092 -0.91709,-57.51092 -0.50439,0 -10.72174,11.26256 -22.7052,25.0279 -11.98349,13.76534 -22.52317,25.0279 -23.42156,25.0279 -1.86211,0 -65.78083,-54.81536 -65.82004,-56.4459 -0.0149,-0.58576 25.35119,-30.29973 56.36727,-66.03105 52.01302,-59.9203 56.39693,-65.58641 56.44475,-72.95366 l 0.0519,-7.98763 -165.07763,0 -165.07762,0 0,134.19214 0,134.19213 165.07762,0 165.07763,0 0,-57.51091 z"
       id="path3437"
       inkscape:connector-curvature="0" /><path
       style="opacity:0;fill:#b3b3b3;fill-opacity:1;stroke:#f9fafb;stroke-width:2.13003373;stroke-linejoin:miter;stroke-miterlimit:4;stroke-dasharray:none;stroke-opacity:1"
       d="m 414.80618,445.01745 c -4.63735,-2.62656 -11.34695,-8.92316 -14.91024,-13.99238 l -6.47869,-9.21679 -0.58467,-160.74653 c -0.41514,-114.1386 0.11058,-163.328459 1.81316,-169.651375 3.17293,-11.783373 17.26654,-25.876982 29.04992,-29.049915 6.32291,-1.702584 55.51277,-2.228303 169.65137,-1.813157 l 160.74653,0.584669 9.21679,6.478693 c 14.23312,10.004798 18.761,19.841136 18.80304,40.847715 0.0281,14.023 0.6215,17.28088 2.98271,16.3748 2.87503,-1.10325 67.34345,52.94252 67.34345,56.456 0,0.92679 -15.57587,19.68337 -34.61305,41.68129 l -34.61305,39.99621 -1.06502,80.29539 -1.06502,80.29538 -5.71705,8.63473 c -3.44147,5.19783 -9.43194,10.43309 -15.05022,13.15285 -9.26497,4.48508 -10.53108,4.51787 -173.2058,4.48308 l -163.87261,-0.035 -8.43155,-4.77562 z M 752.32796,358.2717 c 0,-31.63101 -0.4127,-57.51092 -0.91709,-57.51092 -0.50439,0 -10.72174,11.26256 -22.7052,25.0279 -11.98349,13.76534 -22.52317,25.0279 -23.42156,25.0279 -1.86211,0 -65.78083,-54.81536 -65.82004,-56.4459 -0.0149,-0.58576 25.35119,-30.29973 56.36727,-66.03105 52.01302,-59.9203 56.39693,-65.58641 56.44475,-72.95366 l 0.0519,-7.98763 -165.07763,0 -165.07762,0 0,134.19214 0,134.19213 165.07762,0 165.07763,0 0,-57.51091 z"
       id="path3439"
       inkscape:connector-curvature="0" /></g><g
     id="g45" /><g
     id="g47" /><g
     id="g49" /><g
     id="g51" /><g
     id="g53" /><g
     id="g55" /><g
     id="g57" /><g
     id="g59" /><g
     id="g61" /><g
     id="g63" /><g
     id="g65" /><g
     id="g67" /><g
     id="g69" /><g
     id="g71" /><g
     id="g73" /></svg>