<?xml version="1.0" encoding="iso-8859-1"?>
<!-- Generator: Adobe Illustrator 19.0.0, SVG Export Plug-In . SVG Version: 6.00 Build 0)  -->
<svg xmlns="http://www.w3.org/2000/svg" xmlns:xlink="http://www.w3.org/1999/xlink" version="1.1" id="Capa_1" x="0px" y="0px" viewBox="0 0 502.688 502.688" style="enable-background:new 0 0 502.688 502.688;" xml:space="preserve" width="512px" height="512px">
<g>
	<g>
		<g>
			<path d="M395.004,117.087l-3.063,3.538V97.868c0-23.361-19.133-42.473-42.516-42.473H42.494C19.133,55.395,0,74.507,0,97.868     v306.931c0,23.361,19.155,42.494,42.516,42.494h306.931c23.383,0,42.516-19.133,42.516-42.494V259.455l71.744-82.789     L395.004,117.087z M313.639,349.793l46.161-53.258v114.304H32.14v-267.37h327.617v14.301L245.001,290.214L313.639,349.793z" fill="#656565"/>
			<path d="M496.797,115.275l-45.795-39.647c-6.256-5.479-15.229-5.608-19.759-0.345l-28.689,33.111l68.768,59.557l28.646-33.111     C504.605,129.598,503.16,120.69,496.797,115.275z" fill="#656565"/>
			<polygon points="215.924,387.305 219.418,390.324 305.96,358.81 237.235,299.188    " fill="#656565"/>
		</g>
	</g>
	<g>
	</g>
	<g>
	</g>
	<g>
	</g>
	<g>
	</g>
	<g>
	</g>
	<g>
	</g>
	<g>
	</g>
	<g>
	</g>
	<g>
	</g>
	<g>
	</g>
	<g>
	</g>
	<g>
	</g>
	<g>
	</g>
	<g>
	</g>
	<g>
	</g>
</g>
<g>
</g>
<g>
</g>
<g>
</g>
<g>
</g>
<g>
</g>
<g>
</g>
<g>
</g>
<g>
</g>
<g>
</g>
<g>
</g>
<g>
</g>
<g>
</g>
<g>
</g>
<g>
</g>
<g>
</g>
</svg>
