<?xml version="1.0" encoding="UTF-8" standalone="no"?>
<!-- Generated by IcoMoon.io -->

<svg
   xmlns:dc="http://purl.org/dc/elements/1.1/"
   xmlns:cc="http://creativecommons.org/ns#"
   xmlns:rdf="http://www.w3.org/1999/02/22-rdf-syntax-ns#"
   xmlns:svg="http://www.w3.org/2000/svg"
   xmlns="http://www.w3.org/2000/svg"
   xmlns:sodipodi="http://sodipodi.sourceforge.net/DTD/sodipodi-0.dtd"
   xmlns:inkscape="http://www.inkscape.org/namespaces/inkscape"
   version="1.1"
   width="32"
   height="32"
   viewBox="0 0 32 32"
   id="svg2"
   inkscape:version="0.91 r13725"
   sodipodi:docname="info.svg">
  <metadata
     id="metadata14">
    <rdf:RDF>
      <cc:Work
         rdf:about="">
        <dc:format>image/svg+xml</dc:format>
        <dc:type
           rdf:resource="http://purl.org/dc/dcmitype/StillImage" />
      </cc:Work>
    </rdf:RDF>
  </metadata>
  <defs
     id="defs12" />
  <sodipodi:namedview
     pagecolor="#ffffff"
     bordercolor="#666666"
     borderopacity="1"
     objecttolerance="10"
     gridtolerance="10"
     guidetolerance="10"
     inkscape:pageopacity="0"
     inkscape:pageshadow="2"
     inkscape:window-width="751"
     inkscape:window-height="480"
     id="namedview10"
     showgrid="false"
     inkscape:zoom="7.375"
     inkscape:cx="14.731547"
     inkscape:cy="16"
     inkscape:window-x="0"
     inkscape:window-y="0"
     inkscape:window-maximized="0"
     inkscape:current-layer="svg2" />
  <path
     d="m 13.864407,7.1949153 c 0,-0.825 0.675,-1.5 1.5,-1.5 l 1,0 c 0.825,0 1.5,0.675 1.5,1.5 l 0,1 c 0,0.825 -0.675,1.5 -1.5,1.5 l -1,0 c -0.825,0 -1.5,-0.675 -1.5,-1.5 l 0,-1 z"
     id="path4"
     inkscape:connector-curvature="0" />
  <path
     d="m 19.864407,21.694915 -8,0 0,-2 2,0 0,-6 -2,0 0,-2 6,0 0,8 2,0 z"
     id="path6"
     inkscape:connector-curvature="0" />
  <path
     d="M 16.067797,0 C 7.94225,0 1.3559322,6.4042076 1.3559322,14.305085 c 0,7.900877 6.5863178,14.305084 14.7118648,14.305084 8.125546,0 14.711864,-6.404207 14.711864,-14.305084 C 30.779661,6.4042076 24.193343,0 16.067797,0 Z m 0,25.927966 c -6.60195,0 -11.9533902,-5.203474 -11.9533902,-11.622881 0,-6.419407 5.3514402,-11.6228816 11.9533902,-11.6228816 6.601949,0 11.953389,5.2034746 11.953389,11.6228816 0,6.419407 -5.35144,11.622881 -11.953389,11.622881 z"
     id="path8"
     inkscape:connector-curvature="0" />
</svg>
