<?xml version="1.0" encoding="UTF-8" standalone="no"?>
<!-- Generator: Adobe Illustrator 19.1.0, SVG Export Plug-In . SVG Version: 6.00 Build 0)  -->

<svg
   xmlns:dc="http://purl.org/dc/elements/1.1/"
   xmlns:cc="http://creativecommons.org/ns#"
   xmlns:rdf="http://www.w3.org/1999/02/22-rdf-syntax-ns#"
   xmlns:svg="http://www.w3.org/2000/svg"
   xmlns="http://www.w3.org/2000/svg"
   xmlns:sodipodi="http://sodipodi.sourceforge.net/DTD/sodipodi-0.dtd"
   xmlns:inkscape="http://www.inkscape.org/namespaces/inkscape"
   version="1.1"
   id="Capa_1"
   x="0px"
   y="0px"
   viewBox="0 0 477.175 477.175"
   style="enable-background:new 0 0 477.175 477.175;"
   xml:space="preserve"
   width="512px"
   height="512px"
   inkscape:version="0.91 r13725"
   sodipodi:docname="link-2.svg"><metadata
     id="metadata41"><rdf:RDF><cc:Work
         rdf:about=""><dc:format>image/svg+xml</dc:format><dc:type
           rdf:resource="http://purl.org/dc/dcmitype/StillImage" /><dc:title></dc:title></cc:Work></rdf:RDF></metadata><defs
     id="defs39" /><sodipodi:namedview
     pagecolor="#ffffff"
     bordercolor="#666666"
     borderopacity="1"
     objecttolerance="10"
     gridtolerance="10"
     guidetolerance="10"
     inkscape:pageopacity="0"
     inkscape:pageshadow="2"
     inkscape:window-width="1366"
     inkscape:window-height="705"
     id="namedview37"
     showgrid="false"
     inkscape:zoom="90.509668"
     inkscape:cx="9.213398"
     inkscape:cy="509.04607"
     inkscape:window-x="-8"
     inkscape:window-y="-8"
     inkscape:window-maximized="1"
     inkscape:current-layer="Capa_1" /><g
     id="g7" /><g
     id="g9" /><g
     id="g11" /><g
     id="g13" /><g
     id="g15" /><g
     id="g17" /><g
     id="g19" /><g
     id="g21" /><g
     id="g23" /><g
     id="g25" /><g
     id="g27" /><g
     id="g29" /><g
     id="g31" /><g
     id="g33" /><g
     id="g35" /><g
     id="g4215"
     transform="matrix(0.99359879,0,0,0.92758738,0,-0.00519356)"><g
       transform="matrix(0,-0.02585976,0.03116247,0,0.03679184,9.4345482)"
       id="g4193"><path
         style="fill:#666666"
         inkscape:connector-curvature="0"
         id="path4195"
         d="m 360.731,229.075 -225.1,-225.1 c -5.3,-5.3 -13.8,-5.3 -19.1,0 -5.3,5.3 -5.3,13.8 0,19.1 l 215.5,215.5 -215.5,215.5 c -5.3,5.3 -5.3,13.8 0,19.1 2.6,2.6 6.1,4 9.5,4 3.4,0 6.9,-1.3 9.5,-4 l 225.1,-225.1 c 5.3,-5.2 5.3,-13.8 0.1,-19 z" /><path
         d="m 360.731,229.075 -225.1,-225.1 c -5.3,-5.3 -13.8,-5.3 -19.1,0 -5.3,5.3 -5.3,13.8 0,19.1 l 215.5,215.5 -215.5,215.5 c -5.3,5.3 -5.3,13.8 0,19.1 2.6,2.6 6.1,4 9.5,4 3.4,0 6.9,-1.3 9.5,-4 l 225.1,-225.1 c 5.3,-5.2 5.3,-13.8 0.1,-19 z"
         id="path4197"
         inkscape:connector-curvature="0"
         style="fill:#666666" /></g><path
       inkscape:connector-curvature="0"
       id="path4211"
       d="M 0.85553075,6.3454897 0,6.9862276 0,6.0506047 0.22935505,5.8649363 Z"
       style="fill:#666666;fill-opacity:1;fill-rule:evenodd;stroke:none;stroke-width:0.93198246px;stroke-linecap:butt;stroke-linejoin:miter;stroke-opacity:1" /><path
       style="fill:#666666;fill-opacity:1;fill-rule:evenodd;stroke:none;stroke-width:0.93198246px;stroke-linecap:butt;stroke-linejoin:miter;stroke-opacity:1"
       d="m 14.152256,6.3980282 0.855531,0.6407379 0,-0.9356229 -0.229355,-0.1856684 z"
       id="path4213"
       inkscape:connector-curvature="0" /></g><path
     style="fill:#f5f7fa;fill-opacity:1;fill-rule:evenodd;stroke:none;stroke-width:0.93198246px;stroke-linecap:butt;stroke-linejoin:miter;stroke-opacity:1"
     d="M 0.00364056,6.4729092 14.911719,6.5165959 7.5286706,0.57884846 7.426735,0.78271962 Z"
     id="path4222"
     inkscape:connector-curvature="0" /><g
     transform="matrix(0.99359879,0,0,0.92758738,0,-0.00519356)"
     id="g4224"
     style="fill:#bbbbbb;fill-opacity:1"><g
       id="g4226"
       transform="matrix(0,-0.02585976,0.03116247,0,0.03679184,9.4345482)"
       style="fill:#bbbbbb;fill-opacity:1"><path
         d="m 360.731,229.075 -225.1,-225.1 c -5.3,-5.3 -13.8,-5.3 -19.1,0 -5.3,5.3 -5.3,13.8 0,19.1 l 215.5,215.5 -215.5,215.5 c -5.3,5.3 -5.3,13.8 0,19.1 2.6,2.6 6.1,4 9.5,4 3.4,0 6.9,-1.3 9.5,-4 l 225.1,-225.1 c 5.3,-5.2 5.3,-13.8 0.1,-19 z"
         id="path4228"
         inkscape:connector-curvature="0"
         style="fill:#bbbbbb;fill-opacity:1" /><path
         style="fill:#bbbbbb;fill-opacity:1"
         inkscape:connector-curvature="0"
         id="path4230"
         d="m 360.731,229.075 -225.1,-225.1 c -5.3,-5.3 -13.8,-5.3 -19.1,0 -5.3,5.3 -5.3,13.8 0,19.1 l 215.5,215.5 -215.5,215.5 c -5.3,5.3 -5.3,13.8 0,19.1 2.6,2.6 6.1,4 9.5,4 3.4,0 6.9,-1.3 9.5,-4 l 225.1,-225.1 c 5.3,-5.2 5.3,-13.8 0.1,-19 z" /></g><path
       style="fill:#bbbbbb;fill-opacity:1;fill-rule:evenodd;stroke:none;stroke-width:0.93198246px;stroke-linecap:butt;stroke-linejoin:miter;stroke-opacity:1"
       d="M 0.85553075,6.3454897 0,6.9862276 0,6.0506047 0.22935505,5.8649363 Z"
       id="path4232"
       inkscape:connector-curvature="0" /><path
       inkscape:connector-curvature="0"
       id="path4234"
       d="m 14.152256,6.3980282 0.855531,0.6407379 0,-0.9356229 -0.229355,-0.1856684 z"
       style="fill:#bbbbbb;fill-opacity:1;fill-rule:evenodd;stroke:none;stroke-width:0.93198246px;stroke-linecap:butt;stroke-linejoin:miter;stroke-opacity:1" /></g><path
     style="fill:none;fill-rule:evenodd;stroke:#f5f7fa;stroke-width:0.93842113px;stroke-linecap:butt;stroke-linejoin:miter;stroke-opacity:1"
     d="m 0.0045683,6.9426053 14.9080567,0 -0.04175,0"
     id="path4236"
     inkscape:connector-curvature="0" /><path
     style="fill:#f5f7fa;fill-opacity:1;fill-rule:evenodd;stroke:none;stroke-width:0.93198246px;stroke-linecap:butt;stroke-linejoin:miter;stroke-opacity:1"
     d="M 0.00728111,6.4656284 2.4974217,4.5943824 12.037249,4.3551371 14.920423,6.5484084 14.312897,7.2074195 0,7.1868254 Z"
     id="path4286"
     inkscape:connector-curvature="0" /><path
     style="fill:none;fill-opacity:1;fill-rule:evenodd;stroke:#f5f7fa;stroke-width:0.94594198px;stroke-linecap:butt;stroke-linejoin:miter;stroke-opacity:1"
     d="m 0,7.8708836 14.911719,0"
     id="path4331"
     inkscape:connector-curvature="0" /><path
     style="opacity:1;fill:none;fill-opacity:1;fill-rule:evenodd;stroke:none;stroke-width:2;stroke-linejoin:miter;stroke-miterlimit:4;stroke-dasharray:none;stroke-opacity:1"
     d="M 15.269653,7.292588 C 13.706809,6.1140211 12.666014,5.3167463 10.359592,3.5313573 8.9187485,2.4160084 7.8832525,1.6289949 7.8655415,1.6357912 7.8347896,1.6475918 6.9326407,2.342519 4.3657671,4.3316754 3.2085212,5.2284638 -0.01639352,7.6709785 -0.08127167,7.6998132 c -0.009115,0.00405 -0.01657281,-0.1940984 -0.01657281,-0.4403324 l 0,-0.4476982 0.07181553,-0.06389 c 0.03949854,-0.035139 0.05938592,-0.05765 0.04419417,-0.050024 -0.0214983,0.010792 -0.02762135,-0.061152 -0.02762135,-0.3245425 l 0,-0.3384085 0.07181553,-0.059262 c 0.08215487,-0.067794 0.20611385,-0.1639 0.2919807,-0.2263747 0.0323662,-0.023549 0.0772978,-0.058352 0.0998481,-0.07734 0.0225502,-0.018988 0.0672968,-0.053791 0.0994369,-0.07734 0.0321401,-0.023549 0.0767666,-0.058352 0.09917,-0.07734 0.0224034,-0.018988 0.0629317,-0.049439 0.0900627,-0.067669 0.027131,-0.01823 0.0802628,-0.057996 0.11807072,-0.088369 0.0378079,-0.030372 0.0786853,-0.062874 0.0908387,-0.072225 0.0121534,-0.00935 0.0438405,-0.03484 0.0704159,-0.056641 0.026575,-0.021801 0.074615,-0.058905 0.1067553,-0.082454 0.03214,-0.023549 0.076887,-0.058352 0.099437,-0.07734 0.02255,-0.018988 0.067591,-0.053791 0.1000912,-0.07734 0.0325,-0.023549 0.070419,-0.05276 0.084264,-0.064913 0.013845,-0.012153 0.064948,-0.051628 0.1135612,-0.087722 0.1310106,-0.09727 0.127985,-0.094912 0.1913969,-0.1491937 0.032348,-0.027691 0.080508,-0.065262 0.1070222,-0.083492 0.026514,-0.01823 0.066538,-0.048681 0.088941,-0.067669 0.022404,-0.018988 0.06703,-0.053791 0.09917,-0.07734 0.03214,-0.023549 0.076887,-0.058352 0.099437,-0.07734 0.02255,-0.018988 0.067591,-0.053791 0.1000914,-0.07734 0.0325,-0.023549 0.070419,-0.05276 0.084264,-0.064913 0.013845,-0.012153 0.064948,-0.051568 0.1135611,-0.087587 0.048614,-0.03602 0.1015281,-0.07828 0.1175881,-0.093913 0.01606,-0.015632 0.035947,-0.028653 0.044194,-0.028935 0.00825,-2.829e-4 0.051274,-0.032599 0.095616,-0.071816 0.044342,-0.039217 0.1071198,-0.09057 0.1395064,-0.114119 0.032386,-0.023549 0.077335,-0.058352 0.099885,-0.07734 0.02255,-0.018988 0.067297,-0.053791 0.099437,-0.07734 0.03214,-0.023549 0.076766,-0.058352 0.09917,-0.07734 0.022403,-0.018988 0.062967,-0.049439 0.090142,-0.067669 0.027174,-0.01823 0.07197,-0.053033 0.099545,-0.07734 0.027576,-0.024307 0.071831,-0.05911 0.098345,-0.07734 0.026514,-0.01823 0.066538,-0.048681 0.088941,-0.067669 0.022403,-0.018988 0.06703,-0.053791 0.09917,-0.07734 0.03214,-0.023549 0.076887,-0.058352 0.099437,-0.07734 0.02255,-0.018988 0.067592,-0.053791 0.1000914,-0.07734 0.0325,-0.023549 0.070419,-0.05276 0.084264,-0.064913 0.013845,-0.012153 0.064948,-0.051628 0.1135611,-0.087722 0.1310106,-0.09727 0.127985,-0.094912 0.1913968,-0.1491938 0.032348,-0.02769 0.080508,-0.065262 0.1070224,-0.083492 0.026514,-0.01823 0.066538,-0.048681 0.088941,-0.067669 0.022404,-0.018988 0.06703,-0.053791 0.09917,-0.07734 0.03214,-0.023549 0.076887,-0.058352 0.099437,-0.07734 0.02255,-0.018988 0.067297,-0.053791 0.099437,-0.07734 0.03214,-0.023549 0.079038,-0.060218 0.1042176,-0.081486 0.02518,-0.021269 0.051718,-0.038901 0.058973,-0.039183 0.00726,-2.828e-4 0.049472,-0.032599 0.093814,-0.071816 0.044342,-0.039217 0.1071198,-0.09057 0.1395064,-0.1141191 0.032386,-0.023549 0.077335,-0.058352 0.099885,-0.07734 0.02255,-0.018988 0.067297,-0.053791 0.099437,-0.07734 0.03214,-0.023549 0.076766,-0.058352 0.09917,-0.07734 0.022403,-0.018988 0.062932,-0.049439 0.090063,-0.067669 0.027131,-0.01823 0.080263,-0.057996 0.1180707,-0.088369 0.037808,-0.030372 0.078685,-0.062407 0.090839,-0.071187 0.012153,-0.00878 0.048564,-0.038621 0.080911,-0.066311 0.032348,-0.027691 0.080508,-0.065262 0.1070224,-0.083492 0.026514,-0.01823 0.066538,-0.048681 0.088941,-0.067669 0.022404,-0.018988 0.06703,-0.053791 0.09917,-0.07734 0.03214,-0.023549 0.076887,-0.058352 0.099437,-0.07734 0.02255,-0.018988 0.067591,-0.053791 0.1000914,-0.07734 0.0325,-0.023549 0.070419,-0.05276 0.084264,-0.064913 0.013845,-0.012153 0.064947,-0.051568 0.1135611,-0.087587 0.048614,-0.03602 0.1015282,-0.0782803 0.1175881,-0.0939126 0.01606,-0.0156323 0.035947,-0.0286531 0.044194,-0.0289351 0.00825,-2.8196e-4 0.051274,-0.032599 0.095616,-0.0718155 0.044342,-0.0392165 0.1071198,-0.0905701 0.1395064,-0.11411897 0.032386,-0.0235489 0.077335,-0.0583518 0.099885,-0.0773398 0.02255,-0.018988 0.067297,-0.0537909 0.099437,-0.0773398 0.03214,-0.0235489 0.076766,-0.0583518 0.09917,-0.0773398 0.022403,-0.018988 0.062967,-0.0494392 0.090142,-0.0676693 0.027174,-0.0182301 0.07197,-0.053033 0.099545,-0.0773398 0.027576,-0.0243068 0.071831,-0.0591097 0.098345,-0.0773398 0.046074,-0.0316787 0.072862,-0.0527987 0.1737717,-0.13700381 0.052766,-0.04403148 0.176424,-0.11149482 0.2238673,-0.1221343 0.065098,-0.0145987 0.2333152,-0.01207288 0.3084862,0.004632 0.068049,0.01512214 0.1632305,0.06916991 0.2341725,0.13297214 0.013514,0.0121534 0.051878,0.0419845 0.085255,0.0662913 0.033376,0.0243068 0.079135,0.0597298 0.101685,0.0787178 0.02255,0.018988 0.067499,0.0537909 0.099885,0.0773398 0.032387,0.0235489 0.095164,0.0749024 0.1395065,0.11411897 0.044342,0.0392166 0.086558,0.0715336 0.093814,0.0718155 0.00726,2.8195e-4 0.033793,0.0179142 0.058973,0.0391826 0.02518,0.0212684 0.072077,0.0579372 0.1042176,0.081486 0.03214,0.0235489 0.076887,0.0583518 0.099437,0.0773398 0.02255,0.018988 0.067297,0.0537909 0.099437,0.0773398 0.03214,0.0235489 0.076887,0.0583518 0.099437,0.0773398 0.02255,0.018988 0.067297,0.0537909 0.099437,0.0773398 0.03214,0.0235489 0.076766,0.0583518 0.09917,0.0773398 0.022403,0.018988 0.062476,0.049439 0.08905,0.067669 0.026574,0.01823 0.066646,0.048681 0.08905,0.067669 0.022403,0.018988 0.06703,0.053791 0.09917,0.07734 0.03214,0.023549 0.076887,0.058352 0.099437,0.07734 0.02255,0.018988 0.067297,0.053791 0.099437,0.07734 0.03214,0.023549 0.07689,0.058352 0.09944,0.07734 0.02255,0.018988 0.0675,0.053791 0.09989,0.07734 0.03239,0.023549 0.09516,0.074903 0.139507,0.114119 0.04434,0.039217 0.08656,0.071534 0.09381,0.071816 0.0073,2.82e-4 0.03379,0.017914 0.05897,0.039183 0.02518,0.021268 0.07208,0.057937 0.104218,0.081486 0.03214,0.023549 0.07689,0.058352 0.09944,0.07734 0.02255,0.018988 0.0673,0.053791 0.09944,0.07734 0.03214,0.023549 0.07689,0.058352 0.09944,0.07734 0.02255,0.018988 0.0673,0.053791 0.09944,0.07734 0.03214,0.023549 0.08018,0.060653 0.106755,0.082454 0.07507,0.061582 0.08665,0.070578 0.180882,0.1405609 0.111226,0.082599 0.121971,0.090868 0.180921,0.139228 0.02657,0.021801 0.07461,0.058905 0.106755,0.082454 0.03214,0.023549 0.07689,0.058352 0.09944,0.07734 0.02255,0.018988 0.0675,0.053791 0.09989,0.07734 0.03239,0.023549 0.09516,0.074902 0.139507,0.1141191 0.04434,0.039217 0.08656,0.071534 0.09381,0.071816 0.0073,2.828e-4 0.03379,0.017914 0.05897,0.039183 0.02518,0.021268 0.07208,0.057937 0.104218,0.081486 0.03214,0.023549 0.07689,0.058352 0.09944,0.07734 0.02255,0.018988 0.0673,0.053791 0.09944,0.07734 0.03214,0.023549 0.07689,0.058352 0.09944,0.07734 0.02255,0.018988 0.0673,0.053791 0.09944,0.07734 0.03214,0.023549 0.08018,0.060653 0.106756,0.082454 0.0751,0.061608 0.08666,0.070592 0.180901,0.1405609 0.04861,0.036094 0.09972,0.075569 0.113561,0.087722 0.01384,0.012153 0.05176,0.041364 0.08426,0.064913 0.0325,0.023549 0.07754,0.058352 0.100091,0.07734 0.02255,0.018988 0.0673,0.053791 0.09944,0.07734 0.03214,0.023549 0.08018,0.060654 0.106755,0.082454 0.02658,0.021801 0.05826,0.047289 0.07042,0.056641 0.01215,0.00935 0.05303,0.041853 0.09084,0.072225 0.03781,0.030373 0.09094,0.070138 0.118071,0.088369 0.02713,0.01823 0.06766,0.048681 0.09006,0.067669 0.0224,0.018988 0.06703,0.053791 0.09917,0.07734 0.03214,0.023549 0.07689,0.058352 0.09944,0.07734 0.02255,0.018988 0.0673,0.053791 0.09944,0.07734 0.03214,0.023549 0.07689,0.058352 0.09944,0.07734 0.02255,0.018988 0.0675,0.053791 0.09988,0.07734 0.03239,0.023549 0.09516,0.074902 0.139506,0.1141191 0.04434,0.039217 0.08656,0.071534 0.09381,0.071816 0.0073,2.828e-4 0.03379,0.017914 0.05897,0.039182 0.02518,0.021268 0.07208,0.057937 0.104217,0.081486 0.03214,0.023549 0.07689,0.058352 0.09944,0.07734 0.02255,0.018988 0.0673,0.053791 0.09944,0.07734 0.03214,0.023549 0.08018,0.060653 0.106756,0.082454 0.02658,0.021801 0.05826,0.047289 0.07042,0.056641 0.01215,0.00935 0.05303,0.041853 0.09084,0.072225 0.03781,0.030373 0.09094,0.070138 0.118071,0.088368 0.02713,0.01823 0.06766,0.048681 0.09006,0.067669 0.0224,0.018988 0.06703,0.053791 0.09917,0.07734 0.03214,0.023549 0.07689,0.058352 0.09944,0.07734 0.02255,0.018988 0.06738,0.053791 0.09963,0.07734 0.03225,0.023549 0.09005,0.070003 0.128458,0.1032303 0.03841,0.033228 0.07577,0.060573 0.08302,0.060767 0.0073,1.989e-4 0.03367,0.017754 0.05871,0.039023 0.02503,0.021268 0.06633,0.053295 0.09177,0.071169 0.04428,0.031108 0.04626,0.05112 0.04626,0.4674944 0,0.4241158 -0.0011,0.4347058 -0.04419,0.4234378 -0.02431,-0.00636 -0.04419,-0.028743 -0.04419,-0.049749 0,-0.021006 -0.02237,-0.057135 -0.04972,-0.080287 l -0.04972,-0.042095 0.04419,0.05199 c 0.03946,0.046425 0.04496,0.09018 0.05139,0.4087961 0.004,0.1962431 0.004,0.4006021 0,0.4541307 l -0.0072,0.097325 -0.641842,-0.4840241 z m 0.542405,-0.5255125 c 0,-0.00459 -0.0174,-0.02199 -0.03867,-0.03867 -0.03505,-0.027486 -0.03583,-0.026704 -0.0083,0.00834 0.02887,0.036808 0.04701,0.048514 0.04701,0.030327 z m -0.08839,-0.066291 c 0,-0.00459 -0.0174,-0.02199 -0.03867,-0.03867 -0.03505,-0.027486 -0.03583,-0.026704 -0.0083,0.00834 0.02887,0.036808 0.04701,0.048514 0.04701,0.030327 z M 0.10384789,6.6483602 c 0.0274859,-0.035047 0.0267044,-0.035829 -0.0083429,-0.00834 -0.02126845,0.01668 -0.0386699,0.034081 -0.0386699,0.03867 0,0.018187 0.0181458,0.00648 0.04701276,-0.030327 z M 15.635281,6.634493 c 0,-0.00459 -0.0174,-0.02199 -0.03867,-0.03867 -0.03505,-0.027486 -0.03583,-0.026704 -0.0083,0.00834 0.02887,0.036808 0.04701,0.048514 0.04701,0.030327 z M 0.19223624,6.582069 c 0.0274859,-0.035047 0.0267043,-0.035829 -0.008343,-0.00834 -0.0212684,0.01668 -0.0386699,0.034082 -0.0386699,0.03867 0,0.018187 0.0181458,0.00648 0.0470128,-0.030327 z M 15.546893,6.5682017 c 0,-0.00459 -0.0174,-0.02199 -0.03867,-0.03867 -0.03505,-0.027486 -0.03583,-0.026704 -0.0083,0.00834 0.02887,0.036808 0.04701,0.048514 0.04701,0.030327 z M 0.28062459,6.5157777 c 0.0274859,-0.035047 0.0267043,-0.035829 -0.008343,-0.00834 -0.0212684,0.01668 -0.0386699,0.034081 -0.0386699,0.03867 0,0.018187 0.0181458,0.00648 0.0470128,-0.030327 z M 15.436408,6.4798134 c 0,-0.00459 -0.0174,-0.02199 -0.03867,-0.03867 -0.03505,-0.027486 -0.03583,-0.026704 -0.0083,0.00834 0.02887,0.036808 0.04701,0.048514 0.04701,0.030327 z M 0.39111002,6.4273894 c 0.0274859,-0.035047 0.0267044,-0.035829 -0.008343,-0.00834 -0.0212684,0.01668 -0.0386699,0.034081 -0.0386699,0.03867 0,0.018187 0.0181458,0.00648 0.0470128,-0.030327 z M 15.348019,6.4135221 c 0,-0.00459 -0.0174,-0.02199 -0.03867,-0.03867 -0.03505,-0.027486 -0.03583,-0.026704 -0.0083,0.00834 0.02887,0.036808 0.04701,0.048514 0.04701,0.030327 z M 0.47949837,6.3610981 c 0.0274859,-0.035047 0.0267043,-0.035829 -0.008343,-0.00834 -0.0212684,0.01668 -0.0386699,0.034081 -0.0386699,0.03867 0,0.018187 0.0181458,0.00648 0.0470128,-0.030327 z m 0.0966183,-0.071816 c 0.0219973,-0.024307 0.0350233,-0.044194 0.0289466,-0.044194 -0.006077,0 -0.0290464,0.019887 -0.0510437,0.044194 -0.0219973,0.024307 -0.0350233,0.044194 -0.0289466,0.044194 0.006077,0 0.0290464,-0.019887 0.0510437,-0.044194 z M 15.237534,6.3251338 c 0,-0.00459 -0.0174,-0.02199 -0.03867,-0.03867 -0.03505,-0.027486 -0.03583,-0.026704 -0.0083,0.00834 0.02887,0.036808 0.04701,0.048514 0.04701,0.030327 z m -0.08839,-0.066291 c 0,-0.00459 -0.0174,-0.02199 -0.03867,-0.03867 -0.03505,-0.027486 -0.03583,-0.026704 -0.0083,0.00834 0.02887,0.036808 0.04701,0.048514 0.04701,0.030327 z M 0.67837215,6.2064185 c 0.0274859,-0.035047 0.0267044,-0.035829 -0.008343,-0.00834 -0.0368082,0.028867 -0.0485137,0.047013 -0.030327,0.047013 0.004589,0 0.02199,-0.017401 0.0386699,-0.03867 z M 15.060757,6.1925513 c 0,-0.00459 -0.0174,-0.02199 -0.03867,-0.03867 -0.03505,-0.027486 -0.03583,-0.026704 -0.0083,0.00834 0.02887,0.036808 0.04701,0.048514 0.04701,0.030327 z M 0.7667605,6.1401273 c 0.0274859,-0.035047 0.0267044,-0.035829 -0.008343,-0.00834 -0.0368082,0.028867 -0.0485137,0.047013 -0.030327,0.047013 0.004589,0 0.02199,-0.017402 0.0386699,-0.03867 z M 14.950272,6.1041629 c 0,-0.00459 -0.0174,-0.02199 -0.03867,-0.03867 -0.03505,-0.027486 -0.03583,-0.026704 -0.0083,0.00834 0.02887,0.036808 0.04701,0.048514 0.04701,0.030327 z M 0.87724594,6.0517389 c 0.0274859,-0.035047 0.0267044,-0.035829 -0.008343,-0.00834 -0.0368082,0.028867 -0.0485137,0.047013 -0.030327,0.047013 0.004589,0 0.02199,-0.017401 0.0386699,-0.03867 z M 14.861883,6.0378717 c 0,-0.00459 -0.0174,-0.02199 -0.03867,-0.03867 -0.03505,-0.027486 -0.03583,-0.026704 -0.0083,0.00834 0.02887,0.036808 0.04701,0.048514 0.04701,0.030327 z M 0.96563428,5.9854476 c 0.0274859,-0.035047 0.0267044,-0.035829 -0.008343,-0.00834 -0.0368082,0.028867 -0.0485137,0.047013 -0.030327,0.047013 0.004589,0 0.02199,-0.017401 0.0386699,-0.03867 z M 14.751398,5.9494833 c 0,-0.00459 -0.0174,-0.02199 -0.03867,-0.03867 -0.03505,-0.027486 -0.03583,-0.026704 -0.0083,0.00834 0.02887,0.036808 0.04701,0.048514 0.04701,0.030327 z M 1.0761197,5.8970593 c 0.027486,-0.035047 0.026704,-0.035829 -0.00834,-0.00834 -0.021268,0.01668 -0.03867,0.034082 -0.03867,0.03867 0,0.018187 0.018146,0.00648 0.047013,-0.030327 z M 14.66301,5.883192 c 0,-0.00459 -0.0174,-0.02199 -0.03867,-0.03867 -0.03505,-0.027486 -0.03583,-0.026704 -0.0083,0.00834 0.02887,0.036808 0.04701,0.048514 0.04701,0.030327 z M 1.1645081,5.830768 c 0.027486,-0.035047 0.026704,-0.035829 -0.00834,-0.00834 -0.021268,0.01668 -0.03867,0.034081 -0.03867,0.03867 0,0.018187 0.018146,0.00648 0.047013,-0.030327 z M 14.552524,5.7948037 c 0,-0.00459 -0.0174,-0.02199 -0.03867,-0.03867 -0.03505,-0.027486 -0.03583,-0.026704 -0.0083,0.00834 0.02887,0.036808 0.04701,0.048514 0.04701,0.030327 z M 1.2749935,5.7423797 c 0.027486,-0.035047 0.026704,-0.035829 -0.00834,-0.00834 -0.021268,0.01668 -0.03867,0.034082 -0.03867,0.03867 0,0.018187 0.018146,0.00648 0.047013,-0.030327 z M 14.464136,5.7285124 c 0,-0.00459 -0.0174,-0.02199 -0.03867,-0.03867 -0.03505,-0.027486 -0.03583,-0.026704 -0.0083,0.00834 0.02887,0.036808 0.04701,0.048514 0.04701,0.030327 z M 1.3633818,5.6760884 c 0.027486,-0.035047 0.026704,-0.035829 -0.00834,-0.00834 -0.021269,0.01668 -0.03867,0.034081 -0.03867,0.03867 0,0.018187 0.018146,0.00648 0.047013,-0.030327 z M 14.375747,5.6622212 c 0,-0.00459 -0.0174,-0.02199 -0.03867,-0.03867 -0.03505,-0.027486 -0.03583,-0.026704 -0.0083,0.00834 0.02887,0.036808 0.04701,0.048514 0.04701,0.030327 z M 1.4517702,5.6097972 c 0.027486,-0.035047 0.026704,-0.035829 -0.00834,-0.00834 -0.021268,0.01668 -0.03867,0.034081 -0.03867,0.03867 0,0.018187 0.018146,0.00648 0.047013,-0.030327 z M 14.265262,5.5738328 c 0,-0.00459 -0.0174,-0.02199 -0.03867,-0.03867 -0.03505,-0.027486 -0.03583,-0.026704 -0.0083,0.00834 0.02887,0.036808 0.04701,0.048514 0.04701,0.030327 z M 1.5622556,5.5214088 c 0.027486,-0.035047 0.026704,-0.035829 -0.00834,-0.00834 -0.021268,0.01668 -0.03867,0.034082 -0.03867,0.03867 0,0.018187 0.018146,0.00648 0.047013,-0.030327 z M 14.176874,5.5075416 c 0,-0.00459 -0.0174,-0.02199 -0.03867,-0.03867 -0.03505,-0.027486 -0.03583,-0.026704 -0.0083,0.00834 0.02887,0.036808 0.04701,0.048514 0.04701,0.030327 z M 1.650644,5.4551176 c 0.027486,-0.035047 0.026704,-0.035829 -0.00834,-0.00834 -0.021268,0.01668 -0.03867,0.034081 -0.03867,0.03867 0,0.018187 0.018146,0.00648 0.047013,-0.030327 z m 12.415744,-0.035964 c 0,-0.00459 -0.0174,-0.02199 -0.03867,-0.03867 -0.03505,-0.027486 -0.03583,-0.026704 -0.0083,0.00834 0.02887,0.036808 0.04701,0.048514 0.04701,0.030327 z M 1.7611294,5.3667292 c 0.027486,-0.035047 0.026704,-0.035829 -0.00834,-0.00834 -0.021268,0.01668 -0.03867,0.034082 -0.03867,0.03867 0,0.018187 0.018146,0.00648 0.047013,-0.030327 z M 13.978,5.352862 c 0,-0.00459 -0.0174,-0.02199 -0.03867,-0.03867 -0.03505,-0.027486 -0.03583,-0.026704 -0.0083,0.00834 0.02887,0.036808 0.04701,0.048514 0.04701,0.030327 z M 1.8495178,5.3004379 c 0.027486,-0.035047 0.026704,-0.035829 -0.00834,-0.00834 -0.021268,0.01668 -0.03867,0.034081 -0.03867,0.03867 0,0.018187 0.018146,0.00648 0.047013,-0.030327 z M 13.867514,5.2644736 c 0,-0.00459 -0.0174,-0.02199 -0.03867,-0.03867 -0.03505,-0.027486 -0.03583,-0.026704 -0.0083,0.00834 0.02887,0.036808 0.04701,0.048514 0.04701,0.030327 z M 1.9600032,5.2120496 c 0.027486,-0.035047 0.026704,-0.035829 -0.00834,-0.00834 -0.021268,0.01668 -0.03867,0.034082 -0.03867,0.03867 0,0.018187 0.018146,0.00648 0.047013,-0.030327 z M 13.779126,5.1981824 c 0,-0.00459 -0.0174,-0.02199 -0.03867,-0.03867 -0.03505,-0.027486 -0.03583,-0.026704 -0.0083,0.00834 0.02887,0.036808 0.04701,0.048514 0.04701,0.030327 z M 2.0483915,5.1457583 c 0.027486,-0.035047 0.026704,-0.035829 -0.00834,-0.00834 -0.036808,0.028867 -0.048514,0.047013 -0.030327,0.047013 0.00459,0 0.02199,-0.017401 0.03867,-0.03867 z m 0.096618,-0.071815 c 0.021997,-0.024307 0.035023,-0.044194 0.028947,-0.044194 -0.00608,0 -0.029046,0.019887 -0.051044,0.044194 -0.021997,0.024307 -0.035023,0.044194 -0.028947,0.044194 0.00608,0 0.029046,-0.019887 0.051044,-0.044194 z M 13.668641,5.109794 c 0,-0.00459 -0.0174,-0.02199 -0.03867,-0.03867 -0.03505,-0.027486 -0.03583,-0.026704 -0.0083,0.00834 0.02887,0.036808 0.04701,0.048514 0.04701,0.030327 z m -0.08839,-0.066291 c 0,-0.00459 -0.0174,-0.02199 -0.03867,-0.03867 -0.03505,-0.027486 -0.03583,-0.026704 -0.0083,0.00834 0.02887,0.036808 0.04701,0.048514 0.04701,0.030327 z M 2.2472654,4.9910787 c 0.027486,-0.035047 0.026704,-0.035829 -0.00834,-0.00834 -0.021269,0.01668 -0.03867,0.034081 -0.03867,0.03867 0,0.018187 0.018146,0.00648 0.047013,-0.030327 z M 13.491864,4.9772115 c 0,-0.00459 -0.0174,-0.02199 -0.03867,-0.03867 -0.03505,-0.027486 -0.03583,-0.026704 -0.0083,0.00834 0.02887,0.036808 0.04701,0.048514 0.04701,0.030327 z M 2.3356538,4.9247875 c 0.027486,-0.035047 0.026704,-0.035829 -0.00834,-0.00834 -0.021268,0.01668 -0.03867,0.034081 -0.03867,0.03867 0,0.018187 0.018146,0.00648 0.047013,-0.030327 z M 13.381379,4.8888231 c 0,-0.00459 -0.0174,-0.02199 -0.03867,-0.03867 -0.03505,-0.027486 -0.03583,-0.026704 -0.0083,0.00834 0.02887,0.036808 0.04701,0.048514 0.04701,0.030327 z M 2.4461392,4.8363991 c 0.027486,-0.035047 0.026704,-0.035829 -0.00834,-0.00834 -0.021268,0.01668 -0.03867,0.034081 -0.03867,0.03867 0,0.018187 0.018146,0.00648 0.047013,-0.030327 z M 13.29299,4.8225319 c 0,-0.00459 -0.0174,-0.02199 -0.03867,-0.03867 -0.03505,-0.027486 -0.03583,-0.026704 -0.0083,0.00834 0.02887,0.036808 0.04701,0.048514 0.04701,0.030327 z M 2.5345276,4.7701079 c 0.027486,-0.035047 0.026704,-0.035829 -0.00834,-0.00834 -0.036808,0.028867 -0.048514,0.047013 -0.030327,0.047013 0.00459,0 0.02199,-0.017402 0.03867,-0.03867 z M 13.182505,4.7341435 c 0,-0.00459 -0.0174,-0.02199 -0.03867,-0.03867 -0.03505,-0.027486 -0.03583,-0.026704 -0.0083,0.00834 0.02887,0.036808 0.04701,0.048514 0.04701,0.030327 z M 2.645013,4.6817195 c 0.027486,-0.035047 0.026704,-0.035829 -0.00834,-0.00834 -0.021268,0.01668 -0.03867,0.034082 -0.03867,0.03867 0,0.018187 0.018146,0.00648 0.047013,-0.030327 z m 10.449103,-0.013867 c 0,-0.00459 -0.0174,-0.02199 -0.03867,-0.03867 -0.03505,-0.027486 -0.03583,-0.026704 -0.0083,0.00834 0.02887,0.036808 0.04701,0.048514 0.04701,0.030327 z M 2.7334013,4.6154283 c 0.027486,-0.035047 0.026704,-0.035829 -0.00834,-0.00834 -0.021269,0.01668 -0.03867,0.034081 -0.03867,0.03867 0,0.018187 0.018146,0.00648 0.047013,-0.030327 z M 12.983631,4.5794639 c 0,-0.00459 -0.0174,-0.02199 -0.03867,-0.03867 -0.03505,-0.027486 -0.03583,-0.026704 -0.0083,0.00834 0.02887,0.036808 0.04701,0.048514 0.04701,0.030327 z M 2.8438868,4.5270399 c 0.027486,-0.035047 0.026704,-0.035829 -0.00834,-0.00834 -0.021268,0.01668 -0.03867,0.034082 -0.03867,0.03867 0,0.018187 0.018146,0.00648 0.047013,-0.030327 z M 12.895243,4.5131727 c 0,-0.00459 -0.0174,-0.02199 -0.03867,-0.03867 -0.03505,-0.027486 -0.03583,-0.026704 -0.0083,0.00834 0.02887,0.036808 0.04701,0.048514 0.04701,0.030327 z M 2.9322751,4.4607486 c 0.027486,-0.035047 0.026704,-0.035829 -0.00834,-0.00834 -0.021268,0.01668 -0.03867,0.034081 -0.03867,0.03867 0,0.018187 0.018146,0.00648 0.047013,-0.030327 z m 0.088388,-0.066291 c 0.027486,-0.035047 0.026704,-0.035829 -0.00834,-0.00834 -0.021268,0.01668 -0.03867,0.034082 -0.03867,0.03867 0,0.018187 0.018146,0.00648 0.047013,-0.030327 z m 9.6757055,-0.035964 c 0,-0.00459 -0.0174,-0.02199 -0.03867,-0.03867 -0.03505,-0.027486 -0.03583,-0.026704 -0.0083,0.00834 0.02887,0.036808 0.04701,0.048514 0.04701,0.030327 z M 3.1311489,4.306069 c 0.027486,-0.035047 0.026704,-0.035829 -0.00834,-0.00834 -0.021268,0.01668 -0.03867,0.034081 -0.03867,0.03867 0,0.018187 0.018146,0.00648 0.047013,-0.030327 z M 12.60798,4.2922018 c 0,-0.00459 -0.0174,-0.02199 -0.03867,-0.03867 -0.03505,-0.027486 -0.03583,-0.026704 -0.0083,0.00834 0.02887,0.036808 0.04701,0.048514 0.04701,0.030327 z M 3.2195373,4.2397778 c 0.027486,-0.035047 0.026704,-0.035829 -0.00834,-0.00834 -0.021268,0.01668 -0.03867,0.034081 -0.03867,0.03867 0,0.018187 0.018146,0.00648 0.047013,-0.030327 z m 9.2779577,-0.035964 c 0,-0.00459 -0.0174,-0.02199 -0.03867,-0.03867 -0.03505,-0.027486 -0.03583,-0.026704 -0.0083,0.00834 0.02887,0.036808 0.04701,0.048514 0.04701,0.030327 z M 3.3300227,4.1513894 c 0.027486,-0.035047 0.026704,-0.035829 -0.00834,-0.00834 -0.021268,0.01668 -0.03867,0.034081 -0.03867,0.03867 0,0.018187 0.018146,0.00648 0.047013,-0.030327 z m 9.0790843,-0.013867 c 0,-0.00459 -0.0174,-0.02199 -0.03867,-0.03867 -0.03505,-0.027486 -0.03583,-0.026704 -0.0083,0.00834 0.02887,0.036808 0.04701,0.048514 0.04701,0.030327 z M 3.418411,4.0850982 c 0.027486,-0.035047 0.026704,-0.035829 -0.00834,-0.00834 -0.021269,0.01668 -0.03867,0.034081 -0.03867,0.03867 0,0.018187 0.018146,0.00648 0.047013,-0.030327 z m 8.902307,-0.013148 c 0,-0.00419 -0.02237,-0.026566 -0.04972,-0.049718 l -0.04972,-0.042095 0.04209,0.049718 c 0.03956,0.046723 0.05734,0.059778 0.05734,0.042095 z m -8.7918215,-0.07524 c 0.027486,-0.035047 0.026704,-0.035829 -0.00834,-0.00834 -0.021269,0.01668 -0.03867,0.034081 -0.03867,0.03867 0,0.018187 0.018146,0.00648 0.047013,-0.030327 z m 8.6813365,-0.013867 c 0,-0.00459 -0.0174,-0.02199 -0.03867,-0.03867 -0.03505,-0.027486 -0.03583,-0.026704 -0.0083,0.00834 0.02887,0.036808 0.04701,0.048514 0.04701,0.030327 z M 3.6172848,3.9304186 c 0.027486,-0.035047 0.026704,-0.035829 -0.00834,-0.00834 -0.021268,0.01668 -0.03867,0.034081 -0.03867,0.03867 0,0.018187 0.018146,0.00648 0.047013,-0.030327 z m 8.4824622,-0.035964 c 0,-0.00459 -0.0174,-0.02199 -0.03867,-0.03867 -0.03505,-0.027486 -0.03583,-0.026704 -0.0083,0.00834 0.02887,0.036808 0.04701,0.048514 0.04701,0.030327 z M 3.7277703,3.8420302 c 0.027486,-0.035047 0.026704,-0.035829 -0.00834,-0.00834 -0.021269,0.01668 -0.03867,0.034082 -0.03867,0.03867 0,0.018187 0.018146,0.00648 0.047013,-0.030327 z M 12.011359,3.828163 c 0,-0.00459 -0.0174,-0.02199 -0.03867,-0.03867 -0.03505,-0.027486 -0.03583,-0.026704 -0.0083,0.00834 0.02887,0.036808 0.04701,0.048514 0.04701,0.030327 z M 3.8161586,3.775739 c 0.027486,-0.035047 0.026704,-0.035829 -0.00834,-0.00834 -0.021268,0.01668 -0.03867,0.034081 -0.03867,0.03867 0,0.018187 0.018146,0.00648 0.047013,-0.030327 z m 8.1068124,-0.013867 c 0,-0.00459 -0.0174,-0.02199 -0.03867,-0.03867 -0.03505,-0.027486 -0.03583,-0.026704 -0.0083,0.00834 0.02887,0.036808 0.04701,0.048514 0.04701,0.030327 z M 3.9045469,3.7094477 c 0.027486,-0.035047 0.026704,-0.035829 -0.00834,-0.00834 -0.021269,0.01668 -0.03867,0.034081 -0.03867,0.03867 0,0.018187 0.018146,0.00648 0.047013,-0.030327 z m 7.9079381,-0.035964 c 0,-0.00459 -0.0174,-0.02199 -0.03867,-0.03867 -0.03505,-0.027486 -0.03583,-0.026704 -0.0083,0.00834 0.02887,0.036808 0.04701,0.048514 0.04701,0.030327 z M 4.0150324,3.6210593 c 0.027486,-0.035047 0.026704,-0.035829 -0.00834,-0.00834 -0.021268,0.01668 -0.03867,0.034081 -0.03867,0.03867 0,0.018187 0.018146,0.00648 0.047013,-0.030327 z m 7.7090646,-0.013867 c 0,-0.00459 -0.0174,-0.02199 -0.03867,-0.03867 -0.03505,-0.027486 -0.03583,-0.026704 -0.0083,0.00834 0.02887,0.036808 0.04701,0.048514 0.04701,0.030327 z M 4.1034207,3.5547681 c 0.027486,-0.035047 0.026704,-0.035829 -0.00834,-0.00834 -0.036808,0.028867 -0.048514,0.047013 -0.030327,0.047013 0.00459,0 0.02199,-0.017402 0.03867,-0.03867 z m 7.5101913,-0.035964 c 0,-0.00459 -0.0174,-0.02199 -0.03867,-0.03867 -0.03505,-0.027486 -0.03583,-0.026704 -0.0083,0.00834 0.02887,0.036808 0.04701,0.048514 0.04701,0.030327 z M 4.2139062,3.4663797 c 0.027486,-0.035047 0.026704,-0.035829 -0.00834,-0.00834 -0.021269,0.01668 -0.03867,0.034081 -0.03867,0.03867 0,0.018187 0.018146,0.00648 0.047013,-0.030327 z m 7.3113168,-0.013867 c 0,-0.00459 -0.0174,-0.02199 -0.03867,-0.03867 -0.03505,-0.027486 -0.03583,-0.026704 -0.0083,0.00834 0.02887,0.036808 0.04701,0.048514 0.04701,0.030327 z M 4.3022945,3.4000885 c 0.027486,-0.035047 0.026704,-0.035829 -0.00834,-0.00834 -0.021268,0.01668 -0.03867,0.034081 -0.03867,0.03867 0,0.018187 0.018146,0.00648 0.047013,-0.030327 z m 7.1124435,-0.035964 c 0,-0.00459 -0.0174,-0.02199 -0.03867,-0.03867 -0.03505,-0.027486 -0.03583,-0.026704 -0.0083,0.00834 0.02887,0.036808 0.04701,0.048514 0.04701,0.030327 z M 4.4127799,3.3117001 c 0.027486,-0.035047 0.026704,-0.035829 -0.00834,-0.00834 -0.021268,0.01668 -0.03867,0.034081 -0.03867,0.03867 0,0.018187 0.018146,0.00648 0.047013,-0.030327 z m 6.9135691,-0.013867 c 0,-0.00459 -0.0174,-0.02199 -0.03867,-0.03867 -0.03505,-0.027486 -0.03583,-0.026704 -0.0083,0.00834 0.02887,0.036808 0.04701,0.048514 0.04701,0.030327 z M 4.5011683,3.2454089 c 0.027486,-0.035047 0.026704,-0.035829 -0.00834,-0.00834 -0.021268,0.01668 -0.03867,0.034081 -0.03867,0.03867 0,0.018187 0.018146,0.00648 0.047013,-0.030327 z m 0.096618,-0.071816 c 0.021997,-0.024307 0.035023,-0.044194 0.028947,-0.044194 -0.00608,0 -0.029046,0.019887 -0.051044,0.044194 -0.021997,0.024307 -0.035023,0.044194 -0.028947,0.044194 0.00608,0 0.029046,-0.019887 0.051044,-0.044194 z m 6.6180775,0.035851 c 0,-0.00459 -0.0174,-0.02199 -0.03867,-0.03867 -0.03505,-0.027486 -0.03583,-0.026704 -0.0083,0.00834 0.02887,0.036808 0.04701,0.048514 0.04701,0.030327 z m -0.08839,-0.066291 c 0,-0.00459 -0.0174,-0.02199 -0.03867,-0.03867 -0.03505,-0.027486 -0.03583,-0.026704 -0.0083,0.00834 0.02887,0.036808 0.04701,0.048514 0.04701,0.030327 z M 4.7000421,3.0907293 c 0.027486,-0.035047 0.026704,-0.035829 -0.00834,-0.00834 -0.021268,0.01668 -0.03867,0.034081 -0.03867,0.03867 0,0.018187 0.018146,0.00648 0.047013,-0.030327 z M 11.039087,3.076862 c 0,-0.00459 -0.0174,-0.02199 -0.03867,-0.03867 -0.03505,-0.027486 -0.03583,-0.026704 -0.0083,0.00834 0.02887,0.036808 0.04701,0.048514 0.04701,0.030327 z M 4.7884304,3.024438 c 0.027486,-0.035047 0.026704,-0.035829 -0.00834,-0.00834 -0.036808,0.028867 -0.048514,0.047013 -0.030327,0.047013 0.00459,0 0.02199,-0.017402 0.03867,-0.03867 z m 6.1401716,-0.035964 c 0,-0.00459 -0.0174,-0.02199 -0.03867,-0.03867 -0.03505,-0.027486 -0.03583,-0.026704 -0.0083,0.00834 0.02887,0.036808 0.04701,0.048514 0.04701,0.030327 z M 4.8989159,2.9360497 c 0.027486,-0.035047 0.026704,-0.035829 -0.00834,-0.00834 -0.021268,0.01668 -0.03867,0.034081 -0.03867,0.03867 0,0.018187 0.018146,0.00648 0.047013,-0.030327 z m 5.9412981,-0.013867 c 0,-0.00459 -0.0174,-0.02199 -0.03867,-0.03867 -0.03505,-0.027486 -0.03583,-0.026704 -0.0083,0.00834 0.02887,0.036808 0.04701,0.048514 0.04701,0.030327 z M 4.9873042,2.8697584 c 0.027486,-0.035047 0.026704,-0.035829 -0.00834,-0.00834 -0.021268,0.01668 -0.03867,0.034082 -0.03867,0.03867 0,0.018187 0.018146,0.00648 0.047013,-0.030327 z m 5.7645208,-0.013148 c 0,-0.00419 -0.02237,-0.026566 -0.04972,-0.049718 l -0.04972,-0.042095 0.04209,0.049718 c 0.03956,0.046723 0.05734,0.059778 0.05734,0.042095 z M 5.0977896,2.78137 c 0.027486,-0.035047 0.026704,-0.035829 -0.00834,-0.00834 -0.036808,0.028867 -0.048514,0.047013 -0.030327,0.047013 0.00459,0 0.02199,-0.017401 0.03867,-0.03867 z M 10.64134,2.7675028 c 0,-0.00459 -0.0174,-0.02199 -0.03867,-0.03867 -0.03505,-0.027486 -0.03583,-0.026704 -0.0083,0.00834 0.02887,0.036808 0.04701,0.048514 0.04701,0.030327 z M 5.186178,2.7150788 c 0.027486,-0.035047 0.026704,-0.035829 -0.00834,-0.00834 -0.036808,0.028867 -0.048514,0.047013 -0.030327,0.047013 0.00459,0 0.02199,-0.017402 0.03867,-0.03867 z m 5.344676,-0.035964 c 0,-0.00459 -0.0174,-0.02199 -0.03867,-0.03867 -0.03505,-0.027486 -0.03583,-0.026704 -0.0083,0.00834 0.02887,0.036808 0.04701,0.048514 0.04701,0.030327 z M 5.2966634,2.6266904 c 0.027486,-0.035047 0.026704,-0.035829 -0.00834,-0.00834 -0.036808,0.028867 -0.048514,0.047013 -0.030327,0.047013 0.00459,0 0.02199,-0.017401 0.03867,-0.03867 z m 5.1458026,-0.013867 c 0,-0.00459 -0.0174,-0.02199 -0.03867,-0.03867 -0.03505,-0.027486 -0.03583,-0.026704 -0.0083,0.00834 0.02887,0.036808 0.04701,0.048514 0.04701,0.030327 z M 5.3850518,2.5603992 c 0.027486,-0.035047 0.026704,-0.035829 -0.00834,-0.00834 -0.036808,0.028867 -0.048514,0.047013 -0.030327,0.047013 0.00459,0 0.02199,-0.017402 0.03867,-0.03867 z m 4.9690262,-0.013867 c 0,-0.00459 -0.0174,-0.02199 -0.03867,-0.03867 -0.03505,-0.027486 -0.03583,-0.026704 -0.0083,0.00834 0.02887,0.036808 0.04701,0.048514 0.04701,0.030327 z M 5.4734401,2.4941079 c 0.027486,-0.035047 0.026704,-0.035829 -0.00834,-0.00834 -0.036808,0.028867 -0.048514,0.047013 -0.030327,0.047013 0.00459,0 0.02199,-0.017401 0.03867,-0.03867 z m 4.7701519,-0.035964 c 0,-0.00459 -0.0174,-0.02199 -0.03867,-0.03867 -0.03505,-0.027486 -0.03583,-0.026704 -0.0083,0.00834 0.02887,0.036808 0.04701,0.048514 0.04701,0.030327 z M 5.5839256,2.4057196 c 0.027486,-0.035047 0.026704,-0.035829 -0.00834,-0.00834 -0.021268,0.01668 -0.03867,0.034081 -0.03867,0.03867 0,0.018187 0.018146,0.00648 0.047013,-0.030327 z m 4.5712784,-0.013867 c 0,-0.00459 -0.0174,-0.02199 -0.03867,-0.03867 -0.03505,-0.027486 -0.03583,-0.026704 -0.0083,0.00834 0.02887,0.036808 0.04701,0.048514 0.04701,0.030327 z M 5.6723139,2.3394283 c 0.027486,-0.035047 0.026704,-0.035829 -0.00834,-0.00834 -0.036808,0.028867 -0.048514,0.047013 -0.030327,0.047013 0.00459,0 0.02199,-0.017401 0.03867,-0.03867 z M 10.044718,2.303464 c 0,-0.00459 -0.0174,-0.02199 -0.03867,-0.03867 -0.035047,-0.027486 -0.035828,-0.026704 -0.00834,0.00834 0.028866,0.036808 0.047012,0.048514 0.047012,0.030327 z M 5.7827993,2.25104 c 0.027486,-0.035047 0.026704,-0.035829 -0.00834,-0.00834 -0.036808,0.028867 -0.048514,0.047013 -0.030327,0.047013 0.00459,0 0.02199,-0.017402 0.03867,-0.03867 z m 4.1735308,-0.013867 c 0,-0.00459 -0.017402,-0.02199 -0.03867,-0.03867 -0.035047,-0.027486 -0.035829,-0.026704 -0.00834,0.00834 0.028867,0.036808 0.047013,0.048514 0.047013,0.030327 z M 5.8711877,2.1847487 c 0.027486,-0.035047 0.026704,-0.035829 -0.00834,-0.00834 -0.021268,0.01668 -0.03867,0.034081 -0.03867,0.03867 0,0.018187 0.018146,0.00648 0.047013,-0.030327 z m 3.9746569,-0.035964 c 0,-0.00459 -0.017401,-0.02199 -0.03867,-0.03867 -0.035047,-0.027486 -0.035829,-0.026704 -0.00834,0.00834 0.028867,0.036808 0.047013,0.048514 0.047013,0.030327 z M 5.9816731,2.0963604 c 0.027486,-0.035047 0.026704,-0.035829 -0.00834,-0.00834 -0.036808,0.028867 -0.048514,0.047013 -0.030327,0.047013 0.00459,0 0.02199,-0.017402 0.03867,-0.03867 z m 3.7757832,-0.013867 c 0,-0.00459 -0.017402,-0.02199 -0.03867,-0.03867 -0.035047,-0.027486 -0.035829,-0.026704 -0.00834,0.00834 0.028867,0.036808 0.047013,0.048514 0.047013,0.030327 z M 6.0700615,2.0300691 c 0.027486,-0.035047 0.026704,-0.035829 -0.00834,-0.00834 -0.021268,0.01668 -0.03867,0.034081 -0.03867,0.03867 0,0.018187 0.018146,0.00648 0.047013,-0.030327 z m 0.096618,-0.071816 c 0.021997,-0.024307 0.035023,-0.044194 0.028947,-0.044194 -0.00608,0 -0.029046,0.019887 -0.051044,0.044194 -0.021997,0.024307 -0.035023,0.044194 -0.028947,0.044194 0.00608,0 0.029046,-0.019887 0.051044,-0.044194 z m 3.4802912,0.035851 c 0,-0.00459 -0.017401,-0.02199 -0.03867,-0.03867 -0.035047,-0.027486 -0.035829,-0.026704 -0.00834,0.00834 0.028867,0.036808 0.047013,0.048514 0.047013,0.030327 z m -0.088388,-0.066291 c 0,-0.00459 -0.017402,-0.02199 -0.03867,-0.03867 -0.035047,-0.027486 -0.035829,-0.026704 -0.00834,0.00834 0.028867,0.036808 0.047013,0.048514 0.047013,0.030327 z M 6.2689352,1.8753895 c 0.027486,-0.035047 0.026704,-0.035829 -0.00834,-0.00834 -0.021268,0.01668 -0.03867,0.034081 -0.03867,0.03867 0,0.018187 0.018146,0.00648 0.047013,-0.030327 z m 3.2012589,-0.013867 c 0,-0.00459 -0.017401,-0.02199 -0.03867,-0.03867 -0.035047,-0.027486 -0.035829,-0.026704 -0.00834,0.00834 0.028867,0.036808 0.047013,0.048514 0.047013,0.030327 z M 6.3655534,1.803574 c 0.021998,-0.024307 0.035024,-0.044194 0.028947,-0.044194 -0.00608,0 -0.029046,0.019887 -0.051044,0.044194 -0.021997,0.024307 -0.035023,0.044194 -0.028947,0.044194 0.00608,0 0.029046,-0.019887 0.051044,-0.044194 z m 2.9941553,-0.03044 c 0,-0.00459 -0.017402,-0.02199 -0.03867,-0.03867 -0.035047,-0.027486 -0.035829,-0.026704 -0.00834,0.00834 0.028867,0.036808 0.047013,0.048514 0.047013,0.030327 z M 6.467809,1.7207099 c 0.027486,-0.035047 0.026704,-0.035829 -0.00834,-0.00834 -0.021269,0.01668 -0.03867,0.034081 -0.03867,0.03867 0,0.018187 0.018146,0.00648 0.047013,-0.030327 z m 2.8035114,-0.013867 c 0,-0.00459 -0.017402,-0.02199 -0.03867,-0.03867 -0.035047,-0.027486 -0.035829,-0.026704 -0.00834,0.00834 0.028867,0.036808 0.047013,0.048514 0.047013,0.030327 z m -2.715123,-0.052424 c 0.027486,-0.035047 0.026704,-0.035829 -0.00834,-0.00834 -0.036808,0.028867 -0.048514,0.047013 -0.030327,0.047013 0.00459,0 0.02199,-0.017401 0.03867,-0.03867 z m 2.6046375,-0.035964 c 0,-0.00459 -0.017401,-0.02199 -0.03867,-0.03867 -0.035047,-0.027486 -0.035829,-0.026704 -0.00834,0.00834 0.028867,0.036808 0.047013,0.048514 0.047013,0.030327 z M 6.6666828,1.5660303 c 0.027486,-0.035047 0.026704,-0.035829 -0.00834,-0.00834 -0.021268,0.01668 -0.03867,0.034081 -0.03867,0.03867 0,0.018187 0.018146,0.00648 0.047013,-0.030327 z m 2.4057638,-0.013867 c 0,-0.00459 -0.017402,-0.02199 -0.03867,-0.03867 -0.035047,-0.027486 -0.035829,-0.026704 -0.00834,0.00834 0.028867,0.036808 0.047013,0.048514 0.047013,0.030327 z M 6.7550712,1.499739 c 0.027486,-0.035047 0.026704,-0.035829 -0.00834,-0.00834 -0.036808,0.028867 -0.048514,0.047013 -0.030327,0.047013 0.00459,0 0.02199,-0.017401 0.03867,-0.03867 z m 2.2068899,-0.035964 c 0,-0.00459 -0.017401,-0.02199 -0.03867,-0.03867 -0.035047,-0.027486 -0.035829,-0.026704 -0.00834,0.00834 0.028867,0.036808 0.047013,0.048514 0.047013,0.030327 z M 6.8655566,1.4113507 c 0.027486,-0.035047 0.026704,-0.035829 -0.00834,-0.00834 -0.036808,0.028867 -0.048514,0.047013 -0.030327,0.047013 0.00459,0 0.02199,-0.017402 0.03867,-0.03867 z m 2.0080162,-0.013867 c 0,-0.00459 -0.017402,-0.02199 -0.03867,-0.03867 -0.035047,-0.027486 -0.035829,-0.026704 -0.00834,0.00834 0.028867,0.036808 0.047013,0.048514 0.047013,0.030327 z M 6.9539449,1.3450594 c 0.027486,-0.035047 0.026704,-0.035829 -0.00834,-0.00834 -0.036808,0.028867 -0.048514,0.047013 -0.030327,0.047013 0.00459,0 0.02199,-0.017401 0.03867,-0.03867 z m 1.8312395,-0.013867 c 0,-0.00459 -0.017401,-0.02199 -0.03867,-0.03867 -0.035047,-0.027486 -0.035829,-0.026704 -0.00834,0.00834 0.028867,0.036808 0.047013,0.048514 0.047013,0.030327 z M 7.0423333,1.2787681 c 0.027486,-0.035047 0.026704,-0.035829 -0.00834,-0.00834 -0.036808,0.028867 -0.048514,0.047013 -0.030327,0.047013 0.00459,0 0.02199,-0.017401 0.03867,-0.03867 z M 8.674699,1.2428039 c 0,-0.00459 -0.017401,-0.02199 -0.03867,-0.03867 -0.035047,-0.027486 -0.035829,-0.026704 -0.00834,0.00834 0.028867,0.036808 0.047013,0.048514 0.047013,0.030327 z M 7.1528187,1.1903798 c 0.027486,-0.035047 0.026704,-0.035829 -0.00834,-0.00834 -0.021268,0.01668 -0.03867,0.034081 -0.03867,0.03867 0,0.018187 0.018146,0.00648 0.047013,-0.030327 z m 1.433492,-0.013867 c 0,-0.00459 -0.017402,-0.02199 -0.03867,-0.03867 -0.035047,-0.027486 -0.035829,-0.026704 -0.00834,0.00834 0.028867,0.036808 0.047013,0.048514 0.047013,0.030327 z M 7.2412071,1.1240885 c 0.027486,-0.035047 0.026704,-0.035829 -0.00834,-0.00834 -0.021268,0.01668 -0.03867,0.034081 -0.03867,0.03867 0,0.018187 0.018146,0.00648 0.047013,-0.030327 z m 1.2346181,-0.035964 c 0,-0.00459 -0.017401,-0.02199 -0.03867,-0.03867 -0.035047,-0.027486 -0.035829,-0.026704 -0.00834,0.00834 0.028867,0.036808 0.047013,0.048514 0.047013,0.030327 z M 7.3516925,1.0357002 c 0.027486,-0.035047 0.026704,-0.0358288 -0.00834,-0.00834 -0.021268,0.01668 -0.03867,0.034081 -0.03867,0.03867 0,0.018187 0.018146,0.00648 0.047013,-0.030327 z M 8.3874369,1.021833 c 0,-0.00459 -0.017402,-0.02199 -0.03867,-0.0386699 -0.035047,-0.0274859 -0.035829,-0.0267044 -0.00834,0.008343 0.028867,0.0368082 0.047013,0.0485137 0.047013,0.030327 z M 7.4400808,0.96940892 c 0.027486,-0.0350472 0.026704,-0.0358288 -0.00834,-0.008343 -0.021268,0.0166799 -0.03867,0.0340813 -0.03867,0.0386699 0,0.0181866 0.018146,0.006481 0.047013,-0.030327 z M 8.2769514,0.9334447 c 0,-0.004589 -0.017401,-0.02199 -0.03867,-0.0386699 -0.035047,-0.0274859 -0.035829,-0.0267044 -0.00834,0.008343 0.028867,0.0368082 0.047013,0.0485137 0.047013,0.030327 z M 7.5505663,0.88102057 c 0.027486,-0.0350472 0.026704,-0.0358288 -0.00834,-0.008343 -0.021268,0.0166798 -0.03867,0.0340813 -0.03867,0.0386699 0,0.0181866 0.018146,0.006481 0.047013,-0.030327 z M 7.9403666,0.77131901 c -0.033204,-0.005042 -0.092866,-0.005143 -0.1325825,-2.2539e-4 -0.039716,0.004918 -0.012549,0.009043 0.060371,0.009167 0.07292,1.2375e-4 0.1054155,-0.0039 0.072211,-0.008942 z"
     id="path4373"
     inkscape:connector-curvature="0"
     transform="scale(0.93198243,0.93198243)" /><g
     style="fill:#bbbbbb;fill-opacity:1"
     id="g4390"
     transform="matrix(0.99359879,0,0,0.92758738,0,-0.00519356)"><g
       style="fill:#bbbbbb;fill-opacity:1"
       transform="matrix(0,-0.02585976,0.03116247,0,0.03679184,9.4345482)"
       id="g4392"><path
         style="fill:#bbbbbb;fill-opacity:1"
         inkscape:connector-curvature="0"
         id="path4394"
         d="m 360.731,229.075 -225.1,-225.1 c -5.3,-5.3 -13.8,-5.3 -19.1,0 -5.3,5.3 -5.3,13.8 0,19.1 l 215.5,215.5 -215.5,215.5 c -5.3,5.3 -5.3,13.8 0,19.1 2.6,2.6 6.1,4 9.5,4 3.4,0 6.9,-1.3 9.5,-4 l 225.1,-225.1 c 5.3,-5.2 5.3,-13.8 0.1,-19 z" /><path
         d="m 360.731,229.075 -225.1,-225.1 c -5.3,-5.3 -13.8,-5.3 -19.1,0 -5.3,5.3 -5.3,13.8 0,19.1 l 215.5,215.5 -215.5,215.5 c -5.3,5.3 -5.3,13.8 0,19.1 2.6,2.6 6.1,4 9.5,4 3.4,0 6.9,-1.3 9.5,-4 l 225.1,-225.1 c 5.3,-5.2 5.3,-13.8 0.1,-19 z"
         id="path4396"
         inkscape:connector-curvature="0"
         style="fill:#bbbbbb;fill-opacity:1" /></g><path
       inkscape:connector-curvature="0"
       id="path4398"
       d="M 0.85553075,6.3454897 0,6.9862276 0,6.0506047 0.22935505,5.8649363 Z"
       style="fill:#bbbbbb;fill-opacity:1;fill-rule:evenodd;stroke:none;stroke-width:0.93198246px;stroke-linecap:butt;stroke-linejoin:miter;stroke-opacity:1" /><path
       style="fill:#bbbbbb;fill-opacity:1;fill-rule:evenodd;stroke:none;stroke-width:0.93198246px;stroke-linecap:butt;stroke-linejoin:miter;stroke-opacity:1"
       d="m 14.152256,6.3980282 0.855531,0.6407379 0,-0.9356229 -0.229355,-0.1856684 z"
       id="path4400"
       inkscape:connector-curvature="0" /></g><g
     transform="matrix(0.99359879,0,0,0.92758738,0,1.2406237)"
     id="g4402"
     style="fill:#e4e6e9;fill-opacity:1"><g
       id="g4404"
       transform="matrix(0,-0.02585976,0.03116247,0,0.03679184,9.4345482)"
       style="fill:#e4e6e9;fill-opacity:1"><path
         d="m 360.731,229.075 -225.1,-225.1 c -5.3,-5.3 -13.8,-5.3 -19.1,0 -5.3,5.3 -5.3,13.8 0,19.1 l 215.5,215.5 -215.5,215.5 c -5.3,5.3 -5.3,13.8 0,19.1 2.6,2.6 6.1,4 9.5,4 3.4,0 6.9,-1.3 9.5,-4 l 225.1,-225.1 c 5.3,-5.2 5.3,-13.8 0.1,-19 z"
         id="path4406"
         inkscape:connector-curvature="0"
         style="fill:#e4e6e9;fill-opacity:1" /><path
         style="fill:#e4e6e9;fill-opacity:1"
         inkscape:connector-curvature="0"
         id="path4408"
         d="m 360.731,229.075 -225.1,-225.1 c -5.3,-5.3 -13.8,-5.3 -19.1,0 -5.3,5.3 -5.3,13.8 0,19.1 l 215.5,215.5 -215.5,215.5 c -5.3,5.3 -5.3,13.8 0,19.1 2.6,2.6 6.1,4 9.5,4 3.4,0 6.9,-1.3 9.5,-4 l 225.1,-225.1 c 5.3,-5.2 5.3,-13.8 0.1,-19 z" /></g><path
       style="fill:#e4e6e9;fill-opacity:1;fill-rule:evenodd;stroke:none;stroke-width:0.93198246px;stroke-linecap:butt;stroke-linejoin:miter;stroke-opacity:1"
       d="M 0.85553075,6.3454897 0,6.9862276 0,6.0506047 0.22935505,5.8649363 Z"
       id="path4410"
       inkscape:connector-curvature="0" /><path
       inkscape:connector-curvature="0"
       id="path4412"
       d="m 14.152256,6.3980282 0.855531,0.6407379 0,-0.9356229 -0.229355,-0.1856684 z"
       style="fill:#e4e6e9;fill-opacity:1;fill-rule:evenodd;stroke:none;stroke-width:0.93198246px;stroke-linecap:butt;stroke-linejoin:miter;stroke-opacity:1" /></g><g
     transform="matrix(0.99359879,0,0,0.92758738,0,-0.00519356)"
     id="g4414"
     style="fill:#a4a6a9;fill-opacity:1"><g
       id="g4416"
       transform="matrix(0,-0.02585976,0.03116247,0,0.03679184,9.4345482)"
       style="fill:#a4a6a9;fill-opacity:1"><path
         d="m 360.731,229.075 -225.1,-225.1 c -5.3,-5.3 -13.8,-5.3 -19.1,0 -5.3,5.3 -5.3,13.8 0,19.1 l 215.5,215.5 -215.5,215.5 c -5.3,5.3 -5.3,13.8 0,19.1 2.6,2.6 6.1,4 9.5,4 3.4,0 6.9,-1.3 9.5,-4 l 225.1,-225.1 c 5.3,-5.2 5.3,-13.8 0.1,-19 z"
         id="path4418"
         inkscape:connector-curvature="0"
         style="fill:#a4a6a9;fill-opacity:1" /><path
         style="fill:#a4a6a9;fill-opacity:1"
         inkscape:connector-curvature="0"
         id="path4420"
         d="m 360.731,229.075 -225.1,-225.1 c -5.3,-5.3 -13.8,-5.3 -19.1,0 -5.3,5.3 -5.3,13.8 0,19.1 l 215.5,215.5 -215.5,215.5 c -5.3,5.3 -5.3,13.8 0,19.1 2.6,2.6 6.1,4 9.5,4 3.4,0 6.9,-1.3 9.5,-4 l 225.1,-225.1 c 5.3,-5.2 5.3,-13.8 0.1,-19 z" /></g><path
       style="fill:#a4a6a9;fill-opacity:1;fill-rule:evenodd;stroke:none;stroke-width:0.93198246px;stroke-linecap:butt;stroke-linejoin:miter;stroke-opacity:1"
       d="M 0.85553075,6.3454897 0,6.9862276 0,6.0506047 0.22935505,5.8649363 Z"
       id="path4422"
       inkscape:connector-curvature="0" /><path
       inkscape:connector-curvature="0"
       id="path4424"
       d="m 14.152256,6.3980282 0.855531,0.6407379 0,-0.9356229 -0.229355,-0.1856684 z"
       style="fill:#a4a6a9;fill-opacity:1;fill-rule:evenodd;stroke:none;stroke-width:0.93198246px;stroke-linecap:butt;stroke-linejoin:miter;stroke-opacity:1" /></g><g
     style="fill:#b4b5b6;fill-opacity:1"
     id="g4506"
     transform="matrix(0.99359879,0,0,0.92758738,0,0.46834511)"><g
       style="fill:#b4b5b6;fill-opacity:1"
       transform="matrix(0,-0.02585976,0.03116247,0,0.03679184,9.4345482)"
       id="g4508"><path
         style="fill:#b4b5b6;fill-opacity:1"
         inkscape:connector-curvature="0"
         id="path4510"
         d="m 360.731,229.075 -225.1,-225.1 c -5.3,-5.3 -13.8,-5.3 -19.1,0 -5.3,5.3 -5.3,13.8 0,19.1 l 215.5,215.5 -215.5,215.5 c -5.3,5.3 -5.3,13.8 0,19.1 2.6,2.6 6.1,4 9.5,4 3.4,0 6.9,-1.3 9.5,-4 l 225.1,-225.1 c 5.3,-5.2 5.3,-13.8 0.1,-19 z" /><path
         d="m 360.731,229.075 -225.1,-225.1 c -5.3,-5.3 -13.8,-5.3 -19.1,0 -5.3,5.3 -5.3,13.8 0,19.1 l 215.5,215.5 -215.5,215.5 c -5.3,5.3 -5.3,13.8 0,19.1 2.6,2.6 6.1,4 9.5,4 3.4,0 6.9,-1.3 9.5,-4 l 225.1,-225.1 c 5.3,-5.2 5.3,-13.8 0.1,-19 z"
         id="path4512"
         inkscape:connector-curvature="0"
         style="fill:#b4b5b6;fill-opacity:1" /></g><path
       inkscape:connector-curvature="0"
       id="path4514"
       d="M 0.85553075,6.3454897 0,6.9862276 0,6.0506047 0.22935505,5.8649363 Z"
       style="fill:#b4b5b6;fill-opacity:1;fill-rule:evenodd;stroke:none;stroke-width:0.93198246px;stroke-linecap:butt;stroke-linejoin:miter;stroke-opacity:1" /><path
       style="fill:#b4b5b6;fill-opacity:1;fill-rule:evenodd;stroke:none;stroke-width:0.93198246px;stroke-linecap:butt;stroke-linejoin:miter;stroke-opacity:1"
       d="m 14.152256,6.3980282 0.855531,0.6407379 0,-0.9356229 -0.229355,-0.1856684 z"
       id="path4516"
       inkscape:connector-curvature="0" /></g><g
     style="fill:#a4a6a9;fill-opacity:1"
     id="g4518"
     transform="matrix(0.99359879,0,0,0.92758738,0,-0.00519356)"><g
       style="fill:#a4a6a9;fill-opacity:1"
       transform="matrix(0,-0.02585976,0.03116247,0,0.03679184,9.4345482)"
       id="g4520"><path
         style="fill:#a4a6a9;fill-opacity:1"
         inkscape:connector-curvature="0"
         id="path4522"
         d="m 360.731,229.075 -225.1,-225.1 c -5.3,-5.3 -13.8,-5.3 -19.1,0 -5.3,5.3 -5.3,13.8 0,19.1 l 215.5,215.5 -215.5,215.5 c -5.3,5.3 -5.3,13.8 0,19.1 2.6,2.6 6.1,4 9.5,4 3.4,0 6.9,-1.3 9.5,-4 l 225.1,-225.1 c 5.3,-5.2 5.3,-13.8 0.1,-19 z" /><path
         d="m 360.731,229.075 -225.1,-225.1 c -5.3,-5.3 -13.8,-5.3 -19.1,0 -5.3,5.3 -5.3,13.8 0,19.1 l 215.5,215.5 -215.5,215.5 c -5.3,5.3 -5.3,13.8 0,19.1 2.6,2.6 6.1,4 9.5,4 3.4,0 6.9,-1.3 9.5,-4 l 225.1,-225.1 c 5.3,-5.2 5.3,-13.8 0.1,-19 z"
         id="path4524"
         inkscape:connector-curvature="0"
         style="fill:#a4a6a9;fill-opacity:1" /></g><path
       inkscape:connector-curvature="0"
       id="path4526"
       d="M 0.85553075,6.3454897 0,6.9862276 0,6.0506047 0.22935505,5.8649363 Z"
       style="fill:#a4a6a9;fill-opacity:1;fill-rule:evenodd;stroke:none;stroke-width:0.93198246px;stroke-linecap:butt;stroke-linejoin:miter;stroke-opacity:1" /><path
       style="fill:#a4a6a9;fill-opacity:1;fill-rule:evenodd;stroke:none;stroke-width:0.93198246px;stroke-linecap:butt;stroke-linejoin:miter;stroke-opacity:1"
       d="m 14.152256,6.3980282 0.855531,0.6407379 0,-0.9356229 -0.229355,-0.1856684 z"
       id="path4528"
       inkscape:connector-curvature="0" /></g></svg>