<?xml version="1.0" encoding="UTF-8" standalone="no"?>
<!-- Generated by IcoMoon.io -->

<svg
   xmlns:dc="http://purl.org/dc/elements/1.1/"
   xmlns:cc="http://creativecommons.org/ns#"
   xmlns:rdf="http://www.w3.org/1999/02/22-rdf-syntax-ns#"
   xmlns:svg="http://www.w3.org/2000/svg"
   xmlns="http://www.w3.org/2000/svg"
   xmlns:sodipodi="http://sodipodi.sourceforge.net/DTD/sodipodi-0.dtd"
   xmlns:inkscape="http://www.inkscape.org/namespaces/inkscape"
   version="1.1"
   width="32"
   height="32"
   viewBox="0 0 32 32"
   id="svg2"
   inkscape:version="0.91 r13725"
   sodipodi:docname="question.svg">
  <metadata
     id="metadata10">
    <rdf:RDF>
      <cc:Work
         rdf:about="">
        <dc:format>image/svg+xml</dc:format>
        <dc:type
           rdf:resource="http://purl.org/dc/dcmitype/StillImage" />
      </cc:Work>
    </rdf:RDF>
  </metadata>
  <defs
     id="defs8" />
  <sodipodi:namedview
     pagecolor="#ffffff"
     bordercolor="#666666"
     borderopacity="1"
     objecttolerance="10"
     gridtolerance="10"
     guidetolerance="10"
     inkscape:pageopacity="0"
     inkscape:pageshadow="2"
     inkscape:window-width="1366"
     inkscape:window-height="705"
     id="namedview6"
     showgrid="false"
     inkscape:zoom="7.375"
     inkscape:cx="16"
     inkscape:cy="21.909759"
     inkscape:window-x="-8"
     inkscape:window-y="-8"
     inkscape:window-maximized="1"
     inkscape:current-layer="svg2" />
  <path
     style="opacity:0;fill:none;fill-opacity:0;stroke:#f9fafb;stroke-width:0.13559322;stroke-linejoin:miter;stroke-miterlimit:4;stroke-dasharray:none;stroke-opacity:1"
     d="M 14.054184,32.506948 C 7.8991828,31.388838 2.9156633,26.775531 1.3844678,20.778431 -0.44788938,13.601797 2.9212704,6.0859402 9.4920073,2.6922875 14.61795,0.04484205 20.662434,0.33007051 25.472258,3.4463672 c 3.344598,2.1669727 5.743006,5.5115746 6.785259,9.4621078 0.463191,1.755665 0.581099,4.803442 0.254412,6.576271 -1.22925,6.670801 -6.141341,11.673202 -12.726907,12.960897 -1.552215,0.30351 -4.239304,0.332254 -5.730838,0.06131 z m 5.729011,-4.007314 c 1.465715,-0.368058 3.578493,-1.442144 4.714947,-2.396964 3.126992,-2.627221 4.78579,-6.746572 4.286015,-10.643611 -0.34021,-2.652818 -1.437198,-5.02122 -3.171236,-6.8467103 C 23.996065,6.9102205 22.37432,5.9075734 20.135131,5.225696 19.063539,4.8993753 18.728872,4.8622496 16.840678,4.8602312 15.101524,4.8583722 14.557029,4.9083368 13.684171,5.1498827 9.5937414,6.2818268 6.2787276,9.5971327 5.1506344,13.684171 4.91111,14.551959 4.8592602,15.111626 4.8582031,16.840678 c -0.00117,1.900304 0.033786,2.215989 0.3647131,3.294453 0.678069,2.209771 1.701981,3.881641 3.2991464,5.386934 1.9053304,1.795732 4.0476134,2.845226 6.6237004,3.244922 1.139525,0.176804 3.383954,0.04741 4.637432,-0.267353 z"
     id="path3338"
     inkscape:connector-curvature="0" />
  <path
     style="opacity:0;fill:none;fill-opacity:0;stroke:#f9fafb;stroke-width:0.13559322;stroke-linejoin:miter;stroke-miterlimit:4;stroke-dasharray:none;stroke-opacity:1"
     d="M 14.054184,32.506948 C 7.8991828,31.388838 2.9156633,26.775531 1.3844678,20.778431 -0.44788938,13.601797 2.9212704,6.0859402 9.4920073,2.6922875 14.61795,0.04484205 20.662434,0.33007051 25.472258,3.4463672 c 3.344598,2.1669727 5.743006,5.5115746 6.785259,9.4621078 0.463191,1.755665 0.581099,4.803442 0.254412,6.576271 -1.22925,6.670801 -6.141341,11.673202 -12.726907,12.960897 -1.552215,0.30351 -4.239304,0.332254 -5.730838,0.06131 z m 5.729011,-4.007314 c 1.465715,-0.368058 3.578493,-1.442144 4.714947,-2.396964 3.126992,-2.627221 4.78579,-6.746572 4.286015,-10.643611 -0.34021,-2.652818 -1.437198,-5.02122 -3.171236,-6.8467103 C 23.996065,6.9102205 22.37432,5.9075734 20.135131,5.225696 19.063539,4.8993753 18.728872,4.8622496 16.840678,4.8602312 15.101524,4.8583722 14.557029,4.9083368 13.684171,5.1498827 9.5937414,6.2818268 6.2787276,9.5971327 5.1506344,13.684171 4.91111,14.551959 4.8592602,15.111626 4.8582031,16.840678 c -0.00117,1.900304 0.033786,2.215989 0.3647131,3.294453 0.678069,2.209771 1.701981,3.881641 3.2991464,5.386934 1.9053304,1.795732 4.0476134,2.845226 6.6237004,3.244922 1.139525,0.176804 3.383954,0.04741 4.637432,-0.267353 z"
     id="path3340"
     inkscape:connector-curvature="0" />
  <path
     style="opacity:0;fill:none;fill-opacity:0;stroke:#f9fafb;stroke-width:0.13559322;stroke-linejoin:miter;stroke-miterlimit:4;stroke-dasharray:none;stroke-opacity:1"
     d="M 14.054184,32.506948 C 7.8991828,31.388838 2.9156633,26.775531 1.3844678,20.778431 -0.44788938,13.601797 2.9212704,6.0859402 9.4920073,2.6922875 14.61795,0.04484205 20.662434,0.33007051 25.472258,3.4463672 c 3.344598,2.1669727 5.743006,5.5115746 6.785259,9.4621078 0.463191,1.755665 0.581099,4.803442 0.254412,6.576271 -1.22925,6.670801 -6.141341,11.673202 -12.726907,12.960897 -1.552215,0.30351 -4.239304,0.332254 -5.730838,0.06131 z m 5.729011,-4.007314 c 1.465715,-0.368058 3.578493,-1.442144 4.714947,-2.396964 3.126992,-2.627221 4.78579,-6.746572 4.286015,-10.643611 -0.34021,-2.652818 -1.437198,-5.02122 -3.171236,-6.8467103 C 23.996065,6.9102205 22.37432,5.9075734 20.135131,5.225696 19.063539,4.8993753 18.728872,4.8622496 16.840678,4.8602312 15.101524,4.8583722 14.557029,4.9083368 13.684171,5.1498827 9.5937414,6.2818268 6.2787276,9.5971327 5.1506344,13.684171 4.91111,14.551959 4.8592602,15.111626 4.8582031,16.840678 c -0.00117,1.900304 0.033786,2.215989 0.3647131,3.294453 0.678069,2.209771 1.701981,3.881641 3.2991464,5.386934 1.9053304,1.795732 4.0476134,2.845226 6.6237004,3.244922 1.139525,0.176804 3.383954,0.04741 4.637432,-0.267353 z"
     id="path3342"
     inkscape:connector-curvature="0" />
  <text
     xml:space="preserve"
     style="font-style:normal;font-weight:normal;font-size:37.64552689px;line-height:125%;font-family:sans-serif;letter-spacing:0px;word-spacing:0px;fill:#000000;fill-opacity:1;stroke:none;stroke-width:1px;stroke-linecap:butt;stroke-linejoin:miter;stroke-opacity:1"
     x="4.4664183"
     y="28.958805"
     id="text3344"
     sodipodi:linespacing="125%"
     transform="scale(1.0625432,0.94113818)"><tspan
       sodipodi:role="line"
       id="tspan3346"
       x="4.4664183"
       y="28.958805">?</tspan></text>
</svg>
