<?xml version="1.0" encoding="UTF-8" standalone="no"?>
<!-- Generator: Adobe Illustrator 16.0.0, SVG Export Plug-In . SVG Version: 6.00 Build 0)  -->

<svg
   xmlns:dc="http://purl.org/dc/elements/1.1/"
   xmlns:cc="http://creativecommons.org/ns#"
   xmlns:rdf="http://www.w3.org/1999/02/22-rdf-syntax-ns#"
   xmlns:svg="http://www.w3.org/2000/svg"
   xmlns="http://www.w3.org/2000/svg"
   xmlns:sodipodi="http://sodipodi.sourceforge.net/DTD/sodipodi-0.dtd"
   xmlns:inkscape="http://www.inkscape.org/namespaces/inkscape"
   version="1.1"
   id="Capa_1"
   x="0px"
   y="0px"
   width="31.801px"
   height="31.801px"
   viewBox="0 0 31.801 31.801"
   style="enable-background:new 0 0 31.801 31.801;"
   xml:space="preserve"
   inkscape:version="0.91 r13725"
   sodipodi:docname="rating.svg"
   inkscape:export-filename="D:\OpenServer\domains\pronwe\assets\img\icons\PNG\rating.png"
   inkscape:export-xdpi="235"
   inkscape:export-ydpi="235"><metadata
     id="metadata57"><rdf:RDF><cc:Work
         rdf:about=""><dc:format>image/svg+xml</dc:format><dc:type
           rdf:resource="http://purl.org/dc/dcmitype/StillImage" /></cc:Work></rdf:RDF></metadata><defs
     id="defs55" /><sodipodi:namedview
     pagecolor="#ffffff"
     bordercolor="#666666"
     borderopacity="1"
     objecttolerance="10"
     gridtolerance="10"
     guidetolerance="10"
     inkscape:pageopacity="0"
     inkscape:pageshadow="2"
     inkscape:window-width="1366"
     inkscape:window-height="705"
     id="namedview53"
     showgrid="false"
     inkscape:zoom="7.4211501"
     inkscape:cx="-8.3545005"
     inkscape:cy="15.9005"
     inkscape:window-x="-8"
     inkscape:window-y="-8"
     inkscape:window-maximized="1"
     inkscape:current-layer="Capa_1" /><g
     id="g3"
     transform="translate(0.13474939,-0.53899983)"
     style="fill:#808080;fill-opacity:1;image-rendering:auto"><g
       id="g5"
       style="fill:#808080;fill-opacity:1"><polygon
         points="31.082,21.879 20.961,21.879 20.961,18.467 10.84,18.467 10.84,25.291 0.719,25.291 0.719,28.227 10.84,28.227 20.961,28.227 31.082,28.227 "
         id="polygon7"
         style="fill:#808080;fill-opacity:1" /><circle
         cx="16.291"
         cy="3.9430001"
         r="2.3199999"
         id="circle9"
         style="fill:#808080;fill-opacity:1" /><polygon
         points="18.559,18.105 19.352,18.105 19.352,17.247 18.419,17.045 18.26,17.045 18.26,12.915 18.26,12.526 18.26,11.997 18.408,11.997 18.698,8.196 21.496,3.325 20.284,3.308 18.238,6.612 17.135,6.612 16.25,7.639 15.395,6.612 13.524,6.964 13.394,11.132 14.19,11.132 14.234,11.997 14.355,11.997 14.355,12.526 14.355,12.915 14.355,17.045 14.196,17.045 13.265,17.247 13.265,18.105 14.057,18.105 14.983,17.954 14.991,18.105 16.016,18.105 16.016,17.148 16.016,17.045 16.016,12.915 16.6,12.915 16.6,17.045 16.6,17.148 16.6,18.105 17.625,18.105 17.633,17.954 "
         id="polygon11"
         style="fill:#808080;fill-opacity:1" /><circle
         cx="26.259001"
         cy="7.6550002"
         r="2.293"
         id="circle13"
         style="fill:#808080;fill-opacity:1" /><polygon
         points="28.467,21.65 29.25,21.65 29.25,20.803 28.33,20.604 28.172,20.604 28.172,16.522 28.172,16.136 28.172,15.614 28.292,15.614 28.334,14.759 29.122,14.759 28.993,10.645 27.145,10.293 26.299,11.308 25.425,10.293 23.402,10.645 23.402,14.759 24.124,14.759 24.168,15.614 24.312,15.614 24.312,16.136 24.312,16.522 24.312,20.604 24.156,20.604 23.234,20.803 23.234,21.65 24.02,21.65 24.934,21.502 24.941,21.65 25.954,21.65 25.954,20.706 25.954,20.604 25.954,16.522 26.531,16.522 26.531,20.604 26.531,20.706 26.531,21.65 27.544,21.65 27.552,21.502 "
         id="polygon15"
         style="fill:#808080;fill-opacity:1" /><circle
         cx="5.796"
         cy="10.933"
         r="2.293"
         id="circle17"
         style="fill:#808080;fill-opacity:1" /><polygon
         points="8.004,24.93 8.787,24.93 8.787,24.081 7.867,23.882 7.709,23.882 7.709,19.8 7.709,19.414 7.709,18.893 7.829,18.893 7.872,18.036 8.659,18.036 8.53,13.923 6.682,13.571 5.836,14.585 4.962,13.571 2.939,13.923 2.939,18.036 3.661,18.036 3.705,18.893 3.85,18.893 3.85,19.414 3.85,19.8 3.85,23.882 3.693,23.882 2.772,24.081 2.772,24.93 3.556,24.93 4.47,24.779 4.479,24.93 5.491,24.93 5.491,23.984 5.491,23.882 5.491,19.8 6.068,19.8 6.068,23.882 6.068,23.984 6.068,24.93 7.081,24.93 7.089,24.779 "
         id="polygon19"
         style="fill:#808080;fill-opacity:1" /><rect
         y="28.729"
         width="31.801001"
         height="1.449"
         id="rect21"
         x="0"
         style="fill:#808080;fill-opacity:1" /></g></g><g
     id="g23" /><g
     id="g25" /><g
     id="g27" /><g
     id="g29" /><g
     id="g31" /><g
     id="g33" /><g
     id="g35" /><g
     id="g37" /><g
     id="g39" /><g
     id="g41" /><g
     id="g43" /><g
     id="g45" /><g
     id="g47" /><g
     id="g49" /><g
     id="g51" /></svg>