<?xml version="1.0" encoding="UTF-8" standalone="no"?>
<!-- Generator: Adobe Illustrator 18.1.1, SVG Export Plug-In . SVG Version: 6.00 Build 0)  -->

<svg
   xmlns:dc="http://purl.org/dc/elements/1.1/"
   xmlns:cc="http://creativecommons.org/ns#"
   xmlns:rdf="http://www.w3.org/1999/02/22-rdf-syntax-ns#"
   xmlns:svg="http://www.w3.org/2000/svg"
   xmlns="http://www.w3.org/2000/svg"
   xmlns:sodipodi="http://sodipodi.sourceforge.net/DTD/sodipodi-0.dtd"
   xmlns:inkscape="http://www.inkscape.org/namespaces/inkscape"
   version="1.1"
   id="Capa_1"
   x="0px"
   y="0px"
   viewBox="0 0 28.265 28.265"
   style="enable-background:new 0 0 28.265 28.265;"
   xml:space="preserve"
   width="512px"
   height="512px"
   inkscape:version="0.91 r13725"
   sodipodi:docname="rotateLeft.svg"><metadata
     id="metadata71"><rdf:RDF><cc:Work
         rdf:about=""><dc:format>image/svg+xml</dc:format><dc:type
           rdf:resource="http://purl.org/dc/dcmitype/StillImage" /><dc:title></dc:title></cc:Work></rdf:RDF></metadata><defs
     id="defs69" /><sodipodi:namedview
     pagecolor="#ffffff"
     bordercolor="#666666"
     borderopacity="1"
     objecttolerance="10"
     gridtolerance="10"
     guidetolerance="10"
     inkscape:pageopacity="0"
     inkscape:pageshadow="2"
     inkscape:window-width="1366"
     inkscape:window-height="705"
     id="namedview67"
     showgrid="false"
     inkscape:zoom="0.4609375"
     inkscape:cx="256"
     inkscape:cy="256"
     inkscape:window-x="-8"
     inkscape:window-y="-8"
     inkscape:window-maximized="1"
     inkscape:current-layer="Capa_1" /><g
     id="g3"
     transform="matrix(-1,0,0,1,28.265,0)"><path
       d="m 14.133,28.265 c -7.061,0 -12.805,-5.75 -12.805,-12.809 0,-7.06 5.744,-12.807 12.805,-12.807 0.469,0 0.943,0.027 1.414,0.08 l 0,-2.07 c 0,-0.266 0.164,-0.508 0.406,-0.611 0.252,-0.098 0.531,-0.043 0.723,0.148 l 4.537,4.547 c 0.258,0.258 0.258,0.67 0,0.932 l -4.535,4.557 c -0.193,0.188 -0.473,0.246 -0.725,0.143 -0.242,-0.104 -0.406,-0.344 -0.406,-0.609 l 0,-2.296 C 15.078,7.384 14.606,7.345 14.133,7.345 c -4.473,0 -8.113,3.639 -8.113,8.111 0,4.471 3.641,8.113 8.113,8.113 4.472,0 8.111,-3.643 8.111,-8.113 0,-0.363 0.295,-0.66 0.662,-0.66 l 3.369,0 c 0.365,0 0.662,0.297 0.662,0.66 0,7.059 -5.748,12.809 -12.804,12.809 z"
       id="path5"
       inkscape:connector-curvature="0"
       style="fill:#656565" /><g
       id="g7" /><g
       id="g9" /><g
       id="g11" /><g
       id="g13" /><g
       id="g15" /><g
       id="g17" /><g
       id="g19" /><g
       id="g21" /><g
       id="g23" /><g
       id="g25" /><g
       id="g27" /><g
       id="g29" /><g
       id="g31" /><g
       id="g33" /><g
       id="g35" /></g><g
     id="g37" /><g
     id="g39" /><g
     id="g41" /><g
     id="g43" /><g
     id="g45" /><g
     id="g47" /><g
     id="g49" /><g
     id="g51" /><g
     id="g53" /><g
     id="g55" /><g
     id="g57" /><g
     id="g59" /><g
     id="g61" /><g
     id="g63" /><g
     id="g65" /></svg>