<?xml version="1.0" encoding="UTF-8" standalone="no"?>
<!-- Generated by IcoMoon.io -->

<svg
   xmlns:dc="http://purl.org/dc/elements/1.1/"
   xmlns:cc="http://creativecommons.org/ns#"
   xmlns:rdf="http://www.w3.org/1999/02/22-rdf-syntax-ns#"
   xmlns:svg="http://www.w3.org/2000/svg"
   xmlns="http://www.w3.org/2000/svg"
   xmlns:sodipodi="http://sodipodi.sourceforge.net/DTD/sodipodi-0.dtd"
   xmlns:inkscape="http://www.inkscape.org/namespaces/inkscape"
   version="1.1"
   width="32"
   height="32"
   viewBox="0 0 32 32"
   id="svg2"
   inkscape:version="0.91 r13725"
   sodipodi:docname="twitter.svg">
  <metadata
     id="metadata10">
    <rdf:RDF>
      <cc:Work
         rdf:about="">
        <dc:format>image/svg+xml</dc:format>
        <dc:type
           rdf:resource="http://purl.org/dc/dcmitype/StillImage" />
      </cc:Work>
    </rdf:RDF>
  </metadata>
  <defs
     id="defs8" />
  <sodipodi:namedview
     pagecolor="#ffffff"
     bordercolor="#666666"
     borderopacity="1"
     objecttolerance="10"
     gridtolerance="10"
     guidetolerance="10"
     inkscape:pageopacity="0"
     inkscape:pageshadow="2"
     inkscape:window-width="751"
     inkscape:window-height="480"
     id="namedview6"
     showgrid="false"
     inkscape:zoom="7.375"
     inkscape:cx="16"
     inkscape:cy="16"
     inkscape:window-x="0"
     inkscape:window-y="0"
     inkscape:window-maximized="0"
     inkscape:current-layer="svg2" />
  <path
     d="M 32,7.075 C 30.825,7.6 29.556,7.95 28.231,8.106 c 1.356,-0.813 2.394,-2.1 2.887,-3.631 -1.269,0.75 -2.675,1.3 -4.169,1.594 C 25.749,4.794 24.043,4 22.155,4 c -3.625,0 -6.563,2.938 -6.563,6.563 0,0.512 0.056,1.012 0.169,1.494 C 10.305,11.782 5.467,9.169 2.23,5.195 c -0.563,0.969 -0.887,2.1 -0.887,3.3 0,2.275 1.156,4.287 2.919,5.463 -1.075,-0.031 -2.087,-0.331 -2.975,-0.819 0,0.025 0,0.056 0,0.081 0,3.181 2.263,5.838 5.269,6.437 -0.55,0.15 -1.131,0.231 -1.731,0.231 -0.425,0 -0.831,-0.044 -1.237,-0.119 0.838,2.606 3.263,4.506 6.131,4.563 -2.25,1.762 -5.075,2.813 -8.156,2.813 -0.531,0 -1.05,-0.031 -1.569,-0.094 2.913,1.869 6.362,2.95 10.069,2.95 12.075,0 18.681,-10.006 18.681,-18.681 0,-0.287 -0.006,-0.569 -0.019,-0.85 C 30.006,9.551 31.119,8.395 32,7.076 Z"
     id="path4"
     inkscape:connector-curvature="0" />
</svg>
