<?xml version="1.0" encoding="UTF-8" standalone="no"?>
<!-- Generated by IcoMoon.io -->

<svg
   xmlns:dc="http://purl.org/dc/elements/1.1/"
   xmlns:cc="http://creativecommons.org/ns#"
   xmlns:rdf="http://www.w3.org/1999/02/22-rdf-syntax-ns#"
   xmlns:svg="http://www.w3.org/2000/svg"
   xmlns="http://www.w3.org/2000/svg"
   xmlns:sodipodi="http://sodipodi.sourceforge.net/DTD/sodipodi-0.dtd"
   xmlns:inkscape="http://www.inkscape.org/namespaces/inkscape"
   version="1.1"
   width="35"
   height="32"
   viewBox="0 0 35 32"
   id="svg2"
   inkscape:version="0.91 r13725"
   sodipodi:docname="vk.svg">
  <metadata
     id="metadata10">
    <rdf:RDF>
      <cc:Work
         rdf:about="">
        <dc:format>image/svg+xml</dc:format>
        <dc:type
           rdf:resource="http://purl.org/dc/dcmitype/StillImage" />
      </cc:Work>
    </rdf:RDF>
  </metadata>
  <defs
     id="defs8" />
  <sodipodi:namedview
     pagecolor="#ffffff"
     bordercolor="#666666"
     borderopacity="1"
     objecttolerance="10"
     gridtolerance="10"
     guidetolerance="10"
     inkscape:pageopacity="0"
     inkscape:pageshadow="2"
     inkscape:window-width="751"
     inkscape:window-height="480"
     id="namedview6"
     showgrid="false"
     inkscape:zoom="7.375"
     inkscape:cx="17.5"
     inkscape:cy="16"
     inkscape:window-x="0"
     inkscape:window-y="0"
     inkscape:window-maximized="0"
     inkscape:current-layer="svg2" />
  <path
     d="m 34.232,7.286 q 0.411,1.143 -2.679,5.25 -0.429,0.571 -1.161,1.518 -1.393,1.786 -1.607,2.339 -0.304,0.732 0.25,1.446 0.304,0.375 1.446,1.464 l 0.018,0 0.071,0.071 q 2.518,2.339 3.411,3.946 0.054,0.089 0.116,0.223 0.062,0.134 0.125,0.473 0.063,0.339 -0.009,0.607 -0.072,0.268 -0.446,0.491 -0.374,0.223 -1.054,0.223 l -4.571,0.071 q -0.429,0.089 -1,-0.089 -0.571,-0.178 -0.929,-0.393 l -0.357,-0.214 q -0.536,-0.375 -1.25,-1.143 -0.714,-0.768 -1.223,-1.384 -0.509,-0.616 -1.089,-1.036 -0.58,-0.42 -1.009,-0.277 -0.054,0.018 -0.143,0.063 -0.089,0.045 -0.304,0.259 -0.215,0.214 -0.384,0.527 -0.169,0.313 -0.304,0.929 -0.135,0.616 -0.116,1.384 0,0.268 -0.063,0.491 -0.063,0.223 -0.134,0.33 l -0.071,0.089 q -0.321,0.339 -0.946,0.393 l -2.054,0 Q 15.498,25.408 14.159,25.042 12.82,24.676 11.811,24.096 10.802,23.516 9.972,22.917 9.142,22.318 8.713,21.89 L 8.267,21.461 Q 8.088,21.282 7.776,20.925 7.464,20.568 6.499,19.3 5.534,18.032 4.606,16.604 3.678,15.176 2.418,12.836 1.158,10.496 0.088,7.979 -0.019,7.693 -0.019,7.497 q 0,-0.196 0.054,-0.286 L 0.106,7.104 Q 0.374,6.765 1.124,6.765 L 6.017,6.729 q 0.214,0.036 0.411,0.116 0.197,0.08 0.286,0.152 l 0.089,0.054 q 0.286,0.196 0.429,0.571 0.357,0.893 0.821,1.848 0.464,0.955 0.732,1.455 l 0.286,0.518 q 0.518,1.071 1,1.857 0.482,0.786 0.866,1.223 0.384,0.437 0.741,0.688 0.357,0.251 0.607,0.25 0.25,-10e-4 0.482,-0.089 0.036,-0.018 0.089,-0.089 0.053,-0.071 0.214,-0.393 0.161,-0.322 0.241,-0.839 0.08,-0.517 0.17,-1.446 0.09,-0.929 0,-2.232 Q 13.445,9.659 13.32,9.069 13.195,8.479 13.07,8.248 L 12.963,8.034 Q 12.517,7.427 11.445,7.266 11.213,7.23 11.534,6.837 q 0.304,-0.339 0.679,-0.536 0.946,-0.464 4.268,-0.429 1.464,0.018 2.411,0.232 0.357,0.089 0.598,0.241 0.241,0.152 0.366,0.429 0.125,0.277 0.188,0.571 0.063,0.294 0.063,0.813 0,0.519 -0.018,0.982 -0.018,0.463 -0.045,1.259 -0.027,0.796 -0.027,1.473 0,0.196 -0.018,0.75 -0.018,0.554 -0.009,0.857 0.009,0.303 0.063,0.723 0.054,0.42 0.205,0.696 0.151,0.276 0.402,0.438 0.143,0.036 0.304,0.071 0.161,0.035 0.464,-0.196 0.303,-0.231 0.679,-0.616 0.376,-0.385 0.929,-1.196 0.553,-0.811 1.214,-1.92 1.071,-1.857 1.911,-4.018 0.071,-0.179 0.179,-0.313 0.108,-0.134 0.196,-0.188 l 0.071,-0.054 0.089,-0.045 q 0,0 0.232,-0.054 0.232,-0.054 0.357,-0.009 l 5.143,-0.036 q 0.696,-0.089 1.143,0.045 0.447,0.134 0.554,0.295 z"
     id="path4"
     inkscape:connector-curvature="0" />
</svg>
