<?xml version="1.0" encoding="utf-8"?>
<!-- Generator: Adobe Illustrator 16.0.0, SVG Export Plug-In . SVG Version: 6.00 Build 0)  -->
<!DOCTYPE svg PUBLIC "-//W3C//DTD SVG 1.1//EN" "http://www.w3.org/Graphics/SVG/1.1/DTD/svg11.dtd">
<svg version="1.1" id="Слой_1" xmlns="http://www.w3.org/2000/svg" xmlns:xlink="http://www.w3.org/1999/xlink" x="0px" y="0px"
	 width="566.93px" height="228px" viewBox="0 0 566.93 228" enable-background="new 0 0 566.93 228" xml:space="preserve">
<g>
	<defs>
		<path id="SVGID_1_" d="M283.067,221.862c2.846-0.004,5.692-0.001,8.539,0.004c4.944,0.008,9.89,0.015,14.837-0.028
			c0.274-7.646,0.033-15.386,0.115-23.066c-7.831-0.006-15.656-0.006-23.486-0.006C283.063,206.466,283.072,214.166,283.067,221.862
			 M254.918,171.354c0,7.701-0.005,15.406,0,23.11c7.7,0,15.405,0.006,23.105,0v-23.115
			C270.323,171.349,262.618,171.349,254.918,171.354 M311.607,194.464c7.699,0,15.404,0.006,23.105,0
			c0-7.704-0.005-15.405,0.005-23.104c-4.833-0.013-9.665-0.011-14.496-0.01c-2.872,0.001-5.744,0.002-8.614-0.001V194.464z
			 M283.072,194.282c7.826-0.006,15.655,0,23.486,0v-23.116c-7.831-0.004-15.66,0-23.486-0.004
			C283.067,178.867,283.067,186.576,283.072,194.282 M283.072,143.754c-0.005,7.7,0,15.401,0,23.107
			c3.187-0.002,6.377-0.001,9.566,0c4.64,0.001,9.279,0.003,13.92-0.006c-0.006-7.7,0-15.401,0-23.102H283.072z M254.913,142.829
			c0.005,7.7,0,15.401,0.005,23.101c7.7,0,15.395-0.006,23.091,0.004c0.033-7.703,0.005-15.404,0.014-23.104
			c-5.136,0-10.271-0.003-15.406-0.003C260.05,142.826,257.481,142.827,254.913,142.829 M226.229,165.924
			c7.704,0.01,15.409,0,23.115,0c0-7.7,0.005-15.399,0-23.095c-7.706-0.006-15.411,0-23.115-0.006
			C226.223,150.524,226.233,158.224,226.229,165.924 M311.607,142.829v23.095c7.699,0.006,15.4,0,23.105,0
			c-0.005-7.7,0.005-15.399-0.005-23.101C327.008,142.829,319.307,142.823,311.607,142.829 M353.321,142.825
			c-4.348-0.001-8.693-0.002-13.039,0.004c0.005,7.7-0.005,15.401,0.005,23.101c7.7-0.006,15.406,0,23.11,0v-23.106
			C360.039,142.826,356.68,142.825,353.321,142.825 M283.255,137.79c7.705-0.005,15.411,0,23.12-0.005
			c-0.004-7.7,0-15.405-0.004-23.106c-2.872-0.001-5.743-0.001-8.615,0c-4.829,0.001-9.658,0.003-14.486-0.01
			C283.241,122.38,283.265,130.085,283.255,137.79 M226.04,113.951c0.005,7.705,0,15.41,0,23.116c7.705-0.005,15.41,0,23.116-0.005
			c0.004-7.701,0-15.406,0.004-23.111c-5.136,0-10.275-0.002-15.413-0.002C231.178,113.949,228.609,113.949,226.04,113.951
			 M369.169,113.951c0.005,7.705-0.004,15.41,0.005,23.116c7.705-0.005,15.41-0.005,23.121,0v-23.116
			c-5.141,0-10.278-0.002-15.417-0.002C374.309,113.949,371.739,113.949,369.169,113.951 M311.781,113.951
			c0.004,7.705,0,15.41,0.004,23.116c7.701-0.005,15.4-0.005,23.101,0c0.005-7.706,0-15.411,0.005-23.116
			c-3.853-0.002-7.703-0.004-11.555-0.004S315.633,113.949,311.781,113.951 M340.47,113.951c0,7.705-0.01,15.41,0.005,23.116
			c7.7-0.005,15.406-0.005,23.111,0v-23.116c-3.853-0.002-7.706-0.004-11.558-0.004C348.175,113.947,344.322,113.949,340.47,113.951
			 M205.467,113.949c-2.71,0.002-5.42,0.006-8.13,0.002c0,7.705-0.006,15.41,0,23.116c7.705-0.005,15.415,0,23.124-0.005
			c0.005-7.695-0.019-15.392,0.01-23.092c-3.028-0.021-6.057-0.026-9.086-0.026C209.413,113.944,207.44,113.946,205.467,113.949
			 M264.013,113.95c-3.093-0.003-6.186-0.006-9.279,0.001c0.006,7.705,0,15.41,0.006,23.116c7.704-0.005,15.405,0,23.11-0.005
			c-0.029-7.711,0.048-15.425-0.039-23.136C273.213,113.959,268.613,113.955,264.013,113.95 M439.393,91.771
			c-0.005,1.341-0.009,2.685,0,4.031c1.049-0.003,2.099-0.002,3.146-0.001c1.95,0.003,3.902,0.005,5.855-0.023
			c0.045,12.194,0.025,24.389,0.011,36.583c1.389,0.032,2.782,0.039,4.176,0.032c0.005-12.199,0-24.397,0.005-36.597
			c3.018,0.005,6.041,0.005,9.064,0c-0.004-1.341-0.004-2.681,0-4.021c-3.888-0.005-7.773-0.006-11.66-0.006
			C446.458,91.77,442.924,91.771,439.393,91.771 M432.247,92.233c-8.843,10.367-17.662,20.759-26.496,31.135
			c-0.004-10.531,0-21.062-0.004-31.592c-1.36-0.005-2.724-0.005-4.079-0.02c-0.063,13.573-0.014,27.147-0.024,40.72
			c1.177,0.043,1.731-1.065,2.431-1.813c8.394-9.788,16.817-19.557,25.222-29.335c0.006,10.352,0,20.709,0,31.065
			c1.423,0,2.851,0,4.277-0.004c-0.004-13.355,0-26.713-0.004-40.069c0.136-0.426-0.104-0.594-0.415-0.594
			C432.803,91.727,432.357,91.94,432.247,92.233 M90.809,93.599c-8.433,9.932-16.886,19.846-25.324,29.773V91.776
			c-1.369-0.005-2.739-0.005-4.108-0.005c0.005,13.574-0.014,27.151,0.01,40.725c0.612-0.025,1.104-0.266,1.475-0.734
			c8.723-10.144,17.445-20.289,26.173-30.43c0.005,10.353,0,20.705,0,31.058c1.427,0.004,2.854,0.004,4.281,0
			c-0.004-13.569,0.015-27.143-0.009-40.71c-0.017,0-0.034-0.001-0.05-0.001C92.072,91.678,91.523,92.842,90.809,93.599
			 M46.29,92.991c-5.218,10.695-10.473,21.37-15.719,32.055c-5.025-10.17-10.068-20.329-15.097-30.498
			c-0.53-0.959-0.849-2.078-1.625-2.869l-0.419,0.159c-2.006,13.507-3.892,27.036-5.83,40.556c1.312-0.004,2.623-0.004,3.934,0.007
			c1.356-9.711,2.657-19.433,3.988-29.149c4.86,9.62,9.581,19.312,14.417,28.941c0.285,0.066,0.849,0.201,1.133,0.265
			c4.735-9.701,9.581-19.35,14.326-29.046c1.34,9.657,2.676,19.321,4.007,28.982c1.341-0.004,2.681,0,4.021,0
			c-1.952-13.583-3.911-27.161-5.863-40.744C46.791,91.679,46.598,92.456,46.29,92.991 M465.594,132.39c1.317,0,2.634,0,3.959,0.004
			c1.336-9.734,2.657-19.47,3.983-29.209c4.783,9.711,9.663,19.379,14.412,29.109c0.285,0.029,0.854,0.097,1.138,0.13
			c4.764-9.672,9.547-19.335,14.335-28.998c1.321,9.658,2.657,19.316,4.003,28.969c1.331-0.004,2.666,0,4.002,0
			c-1.942-13.586-3.892-27.169-5.868-40.748c-0.758,0.086-0.979,0.8-1.268,1.369c-5.217,10.685-10.469,21.35-15.705,32.022
			c-5.347-10.791-10.705-21.578-16.033-32.374c-0.191-0.54-0.559-0.882-1.108-1.022C469.476,105.224,467.553,118.811,465.594,132.39
			 M536.87,129.318c-5.406-0.491-10.284-3.958-12.947-8.622c-3.659-6.543-2.555-15.459,2.773-20.787
			c2.444-2.464,5.631-4.204,9.046-4.865c7.343-1.495,15.386,2.498,18.645,9.243c2.696,5.565,2.271,12.585-1.21,17.72
			c-3.104,4.676-8.679,7.438-14.255,7.438C538.237,129.445,537.55,129.403,536.87,129.318 M535.568,90.981
			c-5.241,0.757-10.164,3.601-13.41,7.791c-3.861,4.9-5.381,11.481-4.224,17.595c1.003,5.733,4.74,10.762,9.596,13.867
			c4.879,3.11,11.042,3.866,16.64,2.607c5.444-1.219,10.169-4.884,13.12-9.566c3.144-5.009,3.785-11.341,2.348-17.016
			c-1.336-5.14-4.846-9.571-9.314-12.372c-3.416-2.126-7.445-3.133-11.461-3.133C537.759,90.755,536.656,90.831,535.568,90.981
			 M106.34,98.083c-7.474,8.23-6.567,22.344,1.592,29.799c4.662,4.483,11.46,6.011,17.757,5.424
			c5.898-0.447,11.636-3.299,15.295-7.99c-1.074-0.819-2.145-1.635-3.22-2.445c-1.597,1.761-3.385,3.385-5.497,4.508
			c-4.056,2.248-8.95,2.624-13.429,1.655c-4.537-0.994-8.554-3.969-10.941-7.932c-4.272-7.214-2.608-17.585,4.273-22.605
			c7.584-5.978,19.846-4.571,25.598,3.293c1.08-0.824,2.16-1.648,3.226-2.487c-4.076-5.705-10.953-8.576-17.829-8.575
			C116.824,90.728,110.483,93.169,106.34,98.083 M166.636,90.869c-7.797,0.526-15.039,5.743-17.97,12.985
			c-3.279,8.371-1.119,18.829,5.896,24.658c4.721,4.104,11.303,5.381,17.393,4.761c5.776-0.526,11.393-3.352,14.952-7.985
			c-1.08-0.796-2.156-1.6-3.216-2.416c-1.775,1.978-3.833,3.751-6.25,4.898c-3.934,1.914-8.533,2.181-12.772,1.245
			c-5.945-1.336-11.033-6.104-12.571-12.025c-0.988-3.896-0.786-8.144,0.801-11.857c1.712-4.088,5.193-7.305,9.277-8.978
			c7.378-3.081,16.713-0.873,21.519,5.641c1.066-0.824,2.136-1.649,3.212-2.459c-3.97-5.658-10.87-8.612-17.679-8.611
			C168.361,90.725,167.494,90.773,166.636,90.869 M197.331,85.262c0.006,7.705,0,15.405,0.006,23.106c7.705,0,15.409,0,23.12,0.004
			c0.009-7.705,0-15.41,0-23.11c-5.137,0-10.276-0.002-15.416-0.002C202.472,85.26,199.901,85.26,197.331,85.262 M254.734,85.262
			c0.006,7.705,0,15.405,0.006,23.106c2.946,0.003,5.894,0.002,8.841,0.001c4.749-0.002,9.498-0.004,14.25,0.013
			c0.039-7.71,0.004-15.415,0.014-23.12c-5.133,0-10.269-0.002-15.405-0.002C259.871,85.26,257.303,85.26,254.734,85.262
			 M340.465,85.267c0.005,7.7,0,15.4,0.005,23.101c7.705,0,15.411,0.004,23.116,0V85.262c-3.273-0.002-6.546-0.004-9.82-0.004
			C349.334,85.258,344.899,85.261,340.465,85.267 M234.6,85.261c-2.852,0.002-5.704,0.005-8.555,0.001
			c-0.005,7.7,0,15.4-0.005,23.106c7.705,0.004,15.41,0,23.12,0c0.005-7.696-0.014-15.391,0.01-23.092
			c-2.937-0.014-5.874-0.018-8.811-0.018C238.439,85.258,236.52,85.259,234.6,85.261 M283.255,108.368
			c7.705,0,15.411,0.004,23.116,0c0-7.706,0.004-15.406,0-23.106c-7.705,0-15.411,0-23.116-0.005
			C283.255,92.962,283.26,100.667,283.255,108.368 M311.785,85.257c-0.009,7.705,0,15.405-0.004,23.111
			c7.705,0,15.404,0.004,23.109,0c-0.005-7.706,0.006-15.406-0.005-23.111C327.186,85.262,319.486,85.262,311.785,85.257
			 M369.174,85.257c-0.009,7.705,0,15.405-0.005,23.111c7.71,0.004,15.415,0,23.126,0c-0.006-7.701,0.004-15.406-0.006-23.111
			C384.584,85.262,376.879,85.262,369.174,85.257 M340.282,56.158c0.005,7.709,0,15.424,0,23.134c7.705,0.005,15.411,0,23.115,0
			V56.158H340.282z M234.601,56.158c-2.791,0.001-5.582,0.002-8.372,0v23.134c2.905-0.003,5.811-0.001,8.717,0.002
			c4.804,0.004,9.608,0.008,14.413-0.016c-0.025-7.705-0.015-15.411-0.006-23.111c-3.344-0.008-6.686-0.01-10.029-0.01
			C237.75,56.157,236.175,56.158,234.601,56.158 M319.976,56.158c-2.79,0.001-5.579,0.002-8.368,0v23.134
			c3.053-0.001,6.104,0,9.156,0.001c4.651,0.002,9.302,0.004,13.954-0.005c-0.005-7.71-0.014-15.415,0.005-23.121
			c-3.342-0.008-6.684-0.01-10.024-0.01C323.124,56.157,321.55,56.158,319.976,56.158 M254.913,56.158
			c0.005,7.709,0.005,15.424,0.005,23.134c7.7,0,15.405,0.005,23.105,0c0-7.71-0.004-15.419,0.005-23.13
			c-3.685-0.004-7.37-0.006-11.055-0.006C262.953,56.156,258.933,56.158,254.913,56.158 M237.574,47.701
			c-1.558,0.515-3.906,0.761-4.402,2.603c5.713-1.215,11.552-1.529,17.382-1.345c5.849-0.227,11.649,0.612,17.44,1.321
			c-0.608-1.167-1.909-1.634-3.047-2.102c-3.1-1.042-6.37-1.51-9.62-1.77c-1.143-0.02-2.288-0.035-3.435-0.035
			C247.089,46.373,242.268,46.622,237.574,47.701 M244.821,35.27c-2.633-4.162-5.271-8.328-8.115-12.349
			c-0.969,4.6-1.712,9.244-2.594,13.858c-3.607-2.242-7.064-4.726-10.704-6.919c0.573,1.847,1.6,3.5,2.434,5.236
			c2.079,4.002,4.109,8.033,6.216,12.02c2.787-1.287,5.805-1.918,8.795-2.53c9.412-1.322,19.2-0.878,28.206,2.314
			c2.86-5.671,5.951-11.235,8.574-17.021c-3.645,2.189-7.073,4.735-10.738,6.9c-0.955-4.605-1.567-9.277-2.661-13.853
			c-2.72,4.151-5.516,8.241-8.285,12.358c-1.755-4.532-3.452-9.094-5.453-13.52C248.534,26.234,246.837,30.819,244.821,35.27
			 M279.238,20.828c-3.664,1.25-2.781,7.686,1.162,7.793c3.415,0.134,4.533-4.297,2.986-6.737c-0.66-0.858-1.738-1.295-2.811-1.295
			C280.117,20.589,279.661,20.668,279.238,20.828 M219.371,20.742c-2.256,0.675-3.143,3.568-2.289,5.617
			c0.675,1.904,3.134,2.816,4.927,1.972c2.348-1.186,2.845-4.668,1.287-6.664c-0.716-0.733-1.732-1.091-2.746-1.091
			C220.151,20.576,219.752,20.632,219.371,20.742 M264.171,13.89c-3.761,1.06-3.115,7.58,0.814,7.816
			c3.424,0.366,5.068-4.316,3.115-6.727c-0.649-0.884-1.707-1.217-2.765-1.216C264.94,13.763,264.544,13.809,264.171,13.89
			 M234.3,13.933c-3.747,1.076-3.023,7.498,0.853,7.773c2.537,0.415,4.417-2.261,4.012-4.59c-0.012-1.99-1.777-3.406-3.627-3.406
			C235.124,13.71,234.704,13.781,234.3,13.933 M248.809,12.487c-2.763,1.62-2.527,6.774,0.776,7.613
			c2.999,0.998,5.347-2.738,4.441-5.375c-0.244-1.712-1.859-2.673-3.46-2.673C249.952,12.052,249.34,12.193,248.809,12.487"/>
	</defs>
	<clipPath id="SVGID_2_">
		<use xlink:href="#SVGID_1_"  overflow="visible"/>
	</clipPath>
	
		<linearGradient id="SVGID_3_" gradientUnits="userSpaceOnUse" x1="0" y1="410.002" x2="1" y2="410.002" gradientTransform="matrix(288.0462 288.0462 288.0462 -288.0462 -117963.4531 118068.4766)">
		<stop  offset="0" style="stop-color:#AF7426"/>
		<stop  offset="0.1734" style="stop-color:#FCE189"/>
		<stop  offset="0.4193" style="stop-color:#FCDA70"/>
		<stop  offset="0.6669" style="stop-color:#D37D1C"/>
		<stop  offset="0.771" style="stop-color:#FDD150"/>
		<stop  offset="0.8786" style="stop-color:#FDDD97"/>
		<stop  offset="1" style="stop-color:#D7AF61"/>
	</linearGradient>
	<polygon clip-path="url(#SVGID_2_)" fill="url(#SVGID_3_)" points="284.338,-264.686 665.989,116.966 284.338,498.618 
		-97.314,116.966 	"/>
</g>
</svg>
