<?xml version="1.0" encoding="UTF-8" standalone="no"?>
<!-- Created with Inkscape (http://www.inkscape.org/) -->

<svg
   xmlns:dc="http://purl.org/dc/elements/1.1/"
   xmlns:cc="http://creativecommons.org/ns#"
   xmlns:rdf="http://www.w3.org/1999/02/22-rdf-syntax-ns#"
   xmlns:svg="http://www.w3.org/2000/svg"
   xmlns="http://www.w3.org/2000/svg"
   xmlns:sodipodi="http://sodipodi.sourceforge.net/DTD/sodipodi-0.dtd"
   xmlns:inkscape="http://www.inkscape.org/namespaces/inkscape"
   width="85"
   height="35"
   id="svg3336"
   version="1.1"
   inkscape:version="0.91 r13725"
   viewBox="0 0 85 35"
   sodipodi:docname="NWELOGO.svg"
   inkscape:export-filename="C:\Users\unvir\Pictures\PRONWE\try2.png"
   inkscape:export-xdpi="90"
   inkscape:export-ydpi="90">
  <defs
     id="defs3338">
    <inkscape:path-effect
       effect="construct_grid"
       id="path-effect4384"
       is_visible="true"
       nr_x="11"
       nr_y="11" />
    <inkscape:path-effect
       effect="powerstroke"
       id="path-effect4382"
       is_visible="true"
       offset_points="0,18.318617 | 25,18.318617"
       sort_points="true"
       interpolator_type="Linear"
       interpolator_beta="1"
       start_linecap_type="round"
       linejoin_type="round"
       miter_limit="4"
       end_linecap_type="round" />
    <filter
       style="color-interpolation-filters:sRGB"
       inkscape:label="Electrize"
       id="filter4568">
      <feGaussianBlur
         stdDeviation="6.7"
         result="blur"
         id="feGaussianBlur4570" />
      <feComponentTransfer
         in="blur"
         result="fbSourceGraphic"
         id="feComponentTransfer4572">
        <feFuncR
           type="discrete"
           tableValues="0 1 0 1 0 1 0 1 0 1 0 1"
           id="feFuncR4574" />
        <feFuncG
           type="discrete"
           tableValues="0 1 0 1 0 1 0 1 0 1 0 1"
           id="feFuncG4576" />
        <feFuncB
           type="discrete"
           tableValues="0 1 0 1 0 1 0 1 0 1 0 1"
           id="feFuncB4578" />
      </feComponentTransfer>
      <feColorMatrix
         result="fbSourceGraphicAlpha"
         in="fbSourceGraphic"
         values="0 0 0 -1 0 0 0 0 -1 0 0 0 0 -1 0 0 0 0 1 0"
         id="feColorMatrix4580" />
      <feGaussianBlur
         id="feGaussianBlur4582"
         stdDeviation="6.7"
         result="blur"
         in="fbSourceGraphic" />
      <feComponentTransfer
         id="feComponentTransfer4584"
         in="blur"
         result="component">
        <feFuncR
           id="feFuncR4586"
           type="discrete"
           tableValues="0 1 0 1 0 1 0 1 0 1 0 1" />
        <feFuncG
           id="feFuncG4588"
           type="discrete"
           tableValues="0 1 0 1 0 1 0 1 0 1 0 1" />
        <feFuncB
           id="feFuncB4590"
           type="discrete"
           tableValues="0 1 0 1 0 1 0 1 0 1 0 1" />
      </feComponentTransfer>
    </filter>
    <filter
       style="color-interpolation-filters:sRGB"
       inkscape:label="Electrize"
       id="filter5254">
      <feGaussianBlur
         stdDeviation="5"
         result="blur"
         id="feGaussianBlur5256" />
      <feComponentTransfer
         in="blur"
         result="component"
         id="feComponentTransfer5258">
        <feFuncR
           type="table"
           tableValues="1 0 1 0 1 0 1 0 1 0 1 0"
           id="feFuncR5260" />
        <feFuncG
           type="table"
           tableValues="1 0 1 0 1 0 1 0 1 0 1 0"
           id="feFuncG5262" />
        <feFuncB
           type="table"
           tableValues="1 0 1 0 1 0 1 0 1 0 1 0"
           id="feFuncB5264" />
      </feComponentTransfer>
    </filter>
    <filter
       style="color-interpolation-filters:sRGB"
       x="-0.25"
       width="1.5"
       y="-0.25"
       height="1.5"
       inkscape:menu="Non realistic 3D shaders"
       inkscape:menu-tooltip="Draft painted cartoon shading with a glassy look"
       inkscape:label="Brush Draw"
       id="filter5614">
      <feGaussianBlur
         in="SourceGraphic"
         result="result8"
         stdDeviation="5"
         id="feGaussianBlur5616" />
      <feComposite
         operator="xor"
         in2="result8"
         id="feComposite5618" />
      <feComposite
         in2="result8"
         result="result16"
         operator="arithmetic"
         k2="1"
         id="feComposite5620"
         k1="0"
         k3="0"
         k4="0" />
      <feComposite
         in="result16"
         operator="over"
         result="result6"
         in2="result16"
         id="feComposite5622" />
      <feOffset
         in="result6"
         result="result17"
         id="feOffset5624" />
      <feDisplacementMap
         result="result4"
         scale="100"
         yChannelSelector="A"
         xChannelSelector="A"
         in="result17"
         in2="result16"
         id="feDisplacementMap5626" />
      <feComposite
         k3="1"
         in="result4"
         operator="arithmetic"
         result="result2"
         in2="result4"
         id="feComposite5628"
         k1="0"
         k2="0"
         k4="0" />
      <feComposite
         operator="in"
         in="result6"
         result="fbSourceGraphic"
         in2="result2"
         id="feComposite5630" />
      <feComposite
         result="result14"
         operator="over"
         in2="fbSourceGraphic"
         id="feComposite5632" />
      <feComposite
         in="result14"
         operator="in"
         in2="result2"
         result="result15"
         id="feComposite5634" />
    </filter>
    <filter
       style="color-interpolation-filters:sRGB"
       x="-0.25"
       width="1.5"
       y="-0.25"
       height="1.5"
       inkscape:menu="Non realistic 3D shaders"
       inkscape:menu-tooltip="Draft painted cartoon shading with a glassy look"
       inkscape:label="Brush Draw"
       id="filter9593">
      <feGaussianBlur
         in="SourceGraphic"
         result="result8"
         stdDeviation="5"
         id="feGaussianBlur9595" />
      <feComposite
         operator="xor"
         in2="result8"
         id="feComposite9597" />
      <feComposite
         in2="result8"
         result="result16"
         operator="arithmetic"
         k2="1"
         id="feComposite9599"
         k1="0"
         k3="0"
         k4="0" />
      <feComposite
         in="result16"
         operator="over"
         result="result6"
         in2="result16"
         id="feComposite9601" />
      <feOffset
         in="result6"
         result="result17"
         id="feOffset9603" />
      <feDisplacementMap
         result="result4"
         scale="100"
         yChannelSelector="A"
         xChannelSelector="A"
         in="result17"
         in2="result16"
         id="feDisplacementMap9605" />
      <feComposite
         k3="1"
         in="result4"
         operator="arithmetic"
         result="result2"
         in2="result4"
         id="feComposite9607"
         k1="0"
         k2="0"
         k4="0" />
      <feComposite
         operator="in"
         in="result6"
         result="fbSourceGraphic"
         in2="result2"
         id="feComposite9609" />
      <feComposite
         result="result14"
         operator="over"
         in2="fbSourceGraphic"
         id="feComposite9611" />
      <feComposite
         in="result14"
         operator="in"
         in2="result2"
         result="result15"
         id="feComposite9613" />
    </filter>
    <filter
       style="color-interpolation-filters:sRGB"
       inkscape:label="Electrize"
       id="filter10399">
      <feGaussianBlur
         stdDeviation="0.9"
         result="blur"
         id="feGaussianBlur10401" />
      <feComponentTransfer
         in="blur"
         result="component"
         id="feComponentTransfer10403">
        <feFuncR
           type="table"
           tableValues="0 1"
           id="feFuncR10405" />
        <feFuncG
           type="table"
           tableValues="0 1"
           id="feFuncG10407" />
        <feFuncB
           type="table"
           tableValues="0 1"
           id="feFuncB10409" />
      </feComponentTransfer>
    </filter>
  </defs>
  <sodipodi:namedview
     id="base"
     pagecolor="#ffffff"
     bordercolor="#666666"
     borderopacity="1.0"
     inkscape:pageopacity="0.0"
     inkscape:pageshadow="2"
     inkscape:zoom="8.9333333"
     inkscape:cx="53.308554"
     inkscape:cy="18.419048"
     inkscape:current-layer="layer1"
     inkscape:document-units="px"
     showgrid="true"
     inkscape:window-width="1366"
     inkscape:window-height="705"
     inkscape:window-x="-8"
     inkscape:window-y="-8"
     inkscape:window-maximized="1">
    <inkscape:grid
       type="xygrid"
       id="grid4201" />
  </sodipodi:namedview>
  <metadata
     id="metadata3341">
    <rdf:RDF>
      <cc:Work
         rdf:about="">
        <dc:format>image/svg+xml</dc:format>
        <dc:type
           rdf:resource="http://purl.org/dc/dcmitype/StillImage" />
        <dc:title></dc:title>
      </cc:Work>
    </rdf:RDF>
  </metadata>
  <g
     id="layer1"
     inkscape:label="Layer 1"
     inkscape:groupmode="layer"
     transform="translate(0,-445)">
    <path
       id="flowRoot3344"
       style="font-style:normal;font-weight:normal;font-size:40px;line-height:125%;font-family:sans-serif;letter-spacing:0px;word-spacing:0px;fill:#2f95eb;fill-opacity:1;stroke:#131512;stroke-width:7;stroke-linecap:butt;stroke-linejoin:round;stroke-miterlimit:4;stroke-dasharray:none;stroke-opacity:0.78431373;filter:url(#filter10399)"
       d="m 484.16797,111.33203 c -15.16922,0 -27.26177,4.17719 -36.27539,12.53125 -9.01357,8.13422 -13.62782,19.23469 -13.84766,33.30469 l 0,137.84375 c 0.004,0.19086 0.0166,0.37463 0.0215,0.56445 -0.78925,-5.97327 -1.96343,-13.82996 -3.625,-24.07617 L 406.03906,128.70703 c -0.65953,-4.61672 -2.63593,-8.35101 -5.93359,-11.20898 -3.07781,-2.85796 -6.92625,-4.28711 -11.54297,-4.28711 l -43.5293,0 c -4.83656,0 -8.90352,1.42915 -12.20117,4.28711 -3.07782,2.85797 -4.94789,6.59226 -5.60742,11.20898 l -24.40234,142.46289 c -2.63813,15.82873 -4.28579,26.82092 -4.94532,32.97656 l -6.59375,0 c -0.65953,-12.0914 -1.65163,-23.08361 -2.9707,-32.97656 l -22.0918,-157.95898 -51.44336,0 35.94336,213.68945 c 0.87939,4.17702 2.96797,7.58451 6.26563,10.22266 3.5175,2.41826 7.47422,3.625 11.87109,3.625 l 48.14453,0 c 4.61672,0 8.5754,-1.31891 11.87305,-3.95703 3.5175,-2.63812 5.60611,-6.04758 6.26562,-10.22461 l 24.40235,-148.39453 c 0.65953,-3.73735 1.42921,-9.34172 2.30859,-16.81641 1.09922,-7.47469 1.65039,-11.54164 1.65039,-12.20117 l 6.26367,0 c 0.87937,9.45328 2.20024,19.01633 3.95899,28.68945 l 24.73242,148.72266 c 0.65953,4.17703 2.6379,7.58649 5.93555,10.22461 3.29767,2.63812 7.25242,3.95703 11.86914,3.95703 l 48.14844,0 c 2.45178,0 4.71197,-0.34994 6.79101,-1.03125 4.04023,0.75073 8.35845,1.13086 12.9668,1.13086 49.68469,0 84.86007,-1.10039 105.52539,-3.29883 l -2.30859,-36.9336 -87.38672,0 c -5.49609,0 -9.45477,-1.31694 -11.87305,-3.95507 -2.41828,-2.63812 -3.62695,-7.03578 -3.62695,-13.19141 l 0,-43.85937 90.68554,0 0,-36.2754 -90.68554,0 0,-34.625 c 0,-5.93578 1.20867,-10.22319 3.62695,-12.86132 2.41828,-2.63812 6.37696,-3.95704 11.87305,-3.95704 l 87.38672,0 2.30859,-37.26367 c -20.66532,-2.19844 -55.8407,-3.29492 -105.52539,-3.29492 z m -397.10156,1.88086 c -12.09141,0 -18.136723,6.04365 -18.136722,18.13281 l 0,209.36328 47.816402,0 0,-135.17968 c 0,-13.18819 -0.76968,-25.27743 -2.30859,-36.26758 l 3.62695,0 c 1.75875,7.4733 6.37688,19.23367 13.85157,35.2793 l 59.6875,121.33007 c 2.63812,5.27528 5.38617,9.12123 8.24414,11.53907 2.85797,2.19803 6.81468,3.29882 11.87109,3.29882 l 31.32813,0 c 11.87155,0 17.80664,-6.04559 17.80664,-18.13476 l 0,-209.36133 -47.48633,0 0,130.89258 c 0,8.35251 0.65945,21.0995 1.97851,38.24414 l -3.29687,0 c -5.4961,-13.40799 -10.99219,-25.60555 -16.48828,-36.5957 L 137.85156,128.04883 c -2.63812,-5.27528 -5.38617,-9.01291 -8.24414,-11.21094 -2.85797,-2.41783 -6.81664,-3.625 -11.87304,-3.625 l -30.66797,0 z"
       inkscape:connector-curvature="0"
       inkscape:export-xdpi="90"
       inkscape:export-ydpi="90"
       transform="matrix(0.12859965,0,0,0.12859965,0.41828991,433.09686)" />
    <path
       inkscape:connector-curvature="0"
       d="m 484.16797,111.33203 c -15.16922,0 -27.26177,4.17719 -36.27539,12.53125 -9.01357,8.13422 -13.62782,19.23469 -13.84766,33.30469 l 0,137.84375 c 0.004,0.19086 0.0166,0.37463 0.0215,0.56445 -0.78925,-5.97327 -1.96343,-13.82996 -3.625,-24.07617 L 406.03906,128.70703 c -0.65953,-4.61672 -2.63593,-8.35101 -5.93359,-11.20898 -3.07781,-2.85796 -6.92625,-4.28711 -11.54297,-4.28711 l -43.5293,0 c -4.83656,0 -8.90352,1.42915 -12.20117,4.28711 -3.07782,2.85797 -4.94789,6.59226 -5.60742,11.20898 l -24.40234,142.46289 c -2.63813,15.82873 -4.28579,26.82092 -4.94532,32.97656 l -6.59375,0 c -0.65953,-12.0914 -1.65163,-23.08361 -2.9707,-32.97656 l -22.0918,-157.95898 -51.44336,0 35.94336,213.68945 c 0.87939,4.17702 2.96797,7.58451 6.26563,10.22266 3.5175,2.41826 7.47422,3.625 11.87109,3.625 l 48.14453,0 c 4.61672,0 8.5754,-1.31891 11.87305,-3.95703 3.5175,-2.63812 5.60611,-6.04758 6.26562,-10.22461 l 24.40235,-148.39453 c 0.65953,-3.73735 1.42921,-9.34172 2.30859,-16.81641 1.09922,-7.47469 1.65039,-11.54164 1.65039,-12.20117 l 6.26367,0 c 0.87937,9.45328 2.20024,19.01633 3.95899,28.68945 l 24.73242,148.72266 c 0.65953,4.17703 2.6379,7.58649 5.93555,10.22461 3.29767,2.63812 7.25242,3.95703 11.86914,3.95703 l 48.14844,0 c 2.45178,0 4.71197,-0.34994 6.79101,-1.03125 4.04023,0.75073 8.35845,1.13086 12.9668,1.13086 49.68469,0 84.86007,-1.10039 105.52539,-3.29883 l -2.30859,-36.9336 -87.38672,0 c -5.49609,0 -9.45477,-1.31694 -11.87305,-3.95507 -2.41828,-2.63812 -3.62695,-7.03578 -3.62695,-13.19141 l 0,-43.85937 90.68554,0 0,-36.2754 -90.68554,0 0,-34.625 c 0,-5.93578 1.20867,-10.22319 3.62695,-12.86132 2.41828,-2.63812 6.37696,-3.95704 11.87305,-3.95704 l 87.38672,0 2.30859,-37.26367 c -20.66532,-2.19844 -55.8407,-3.29492 -105.52539,-3.29492 z m -397.10156,1.88086 c -12.09141,0 -18.136723,6.04365 -18.136722,18.13281 l 0,209.36328 47.816402,0 0,-135.17968 c 0,-13.18819 -0.76968,-25.27743 -2.30859,-36.26758 l 3.62695,0 c 1.75875,7.4733 6.37688,19.23367 13.85157,35.2793 l 59.6875,121.33007 c 2.63812,5.27528 5.38617,9.12123 8.24414,11.53907 2.85797,2.19803 6.81468,3.29882 11.87109,3.29882 l 31.32813,0 c 11.87155,0 17.80664,-6.04559 17.80664,-18.13476 l 0,-209.36133 -47.48633,0 0,130.89258 c 0,8.35251 0.65945,21.0995 1.97851,38.24414 l -3.29687,0 c -5.4961,-13.40799 -10.99219,-25.60555 -16.48828,-36.5957 L 137.85156,128.04883 c -2.63812,-5.27528 -5.38617,-9.01291 -8.24414,-11.21094 -2.85797,-2.41783 -6.81664,-3.625 -11.87304,-3.625 l -30.66797,0 z"
       style="font-style:normal;font-weight:normal;font-size:40px;line-height:125%;font-family:sans-serif;letter-spacing:0px;word-spacing:0px;fill:none;fill-opacity:1;stroke:#131512;stroke-width:15;stroke-linecap:butt;stroke-linejoin:miter;stroke-miterlimit:4;stroke-dasharray:none;stroke-opacity:1;filter:url(#filter9593)"
       id="path4193"
       transform="matrix(0.12859965,0,0,0.12859965,0.41828991,433.09686)" />
  </g>
</svg>
